<mxfile host="app.diagrams.net" modified="2022-04-17T10:44:51.192Z" agent="5.0 (Windows NT 10.0; WOW64) AppleWebKit/537.36 (KHTML, like Gecko) Chrome/96.0.4664.45 Safari/537.36" etag="oIv4iWdQ98cifzoAJAVr" version="17.4.1" type="github">
  <diagram id="8NPvuT-ZTqcMZQu6F27M" name="第 1 页">
    <mxGraphModel dx="1922" dy="885" grid="1" gridSize="10" guides="1" tooltips="1" connect="1" arrows="1" fold="1" page="1" pageScale="1" pageWidth="827" pageHeight="1169" background="#ffffff" math="0" shadow="0">
      <root>
        <mxCell id="0" />
        <mxCell id="1" parent="0" />
        <mxCell id="3hG3ktwHdd7RbcDjbh9i-1" value="" style="endArrow=none;dashed=1;html=1;rounded=0;fillColor=#d5e8d4;strokeColor=#00FFFF;strokeWidth=3;comic=1;entryX=0.5;entryY=1;entryDx=0;entryDy=0;" parent="1" target="3hG3ktwHdd7RbcDjbh9i-2" edge="1">
          <mxGeometry width="50" height="50" relative="1" as="geometry">
            <mxPoint x="180" y="760" as="sourcePoint" />
            <mxPoint x="179.5" y="190" as="targetPoint" />
          </mxGeometry>
        </mxCell>
        <mxCell id="3hG3ktwHdd7RbcDjbh9i-2" value="&lt;b&gt;&lt;font style=&quot;font-size: 16px&quot;&gt;协调者&lt;/font&gt;&lt;/b&gt;" style="rounded=0;whiteSpace=wrap;html=1;fillColor=#00FFFF;" parent="1" vertex="1">
          <mxGeometry x="120" y="120" width="120" height="40" as="geometry" />
        </mxCell>
        <mxCell id="3hG3ktwHdd7RbcDjbh9i-3" value="" style="endArrow=none;dashed=1;html=1;rounded=0;fillColor=#d5e8d4;strokeColor=#FF9933;strokeWidth=3;comic=1;entryX=0.5;entryY=1;entryDx=0;entryDy=0;startArrow=none;" parent="1" source="3hG3ktwHdd7RbcDjbh9i-10" target="3hG3ktwHdd7RbcDjbh9i-4" edge="1">
          <mxGeometry width="50" height="50" relative="1" as="geometry">
            <mxPoint x="580" y="720" as="sourcePoint" />
            <mxPoint x="269.5" y="210" as="targetPoint" />
          </mxGeometry>
        </mxCell>
        <mxCell id="3hG3ktwHdd7RbcDjbh9i-4" value="&lt;b&gt;&lt;font style=&quot;font-size: 16px&quot;&gt;参与者集群&lt;/font&gt;&lt;/b&gt;" style="rounded=0;whiteSpace=wrap;html=1;fillColor=#FFB366;" parent="1" vertex="1">
          <mxGeometry x="520" y="120" width="120" height="40" as="geometry" />
        </mxCell>
        <mxCell id="3hG3ktwHdd7RbcDjbh9i-5" value="" style="endArrow=classic;html=1;rounded=0;comic=1;fontSize=16;strokeWidth=3;" parent="1" edge="1">
          <mxGeometry relative="1" as="geometry">
            <mxPoint x="180" y="200" as="sourcePoint" />
            <mxPoint x="580" y="200" as="targetPoint" />
          </mxGeometry>
        </mxCell>
        <mxCell id="3hG3ktwHdd7RbcDjbh9i-6" value="&lt;font style=&quot;font-size: 12px&quot;&gt;&lt;b&gt;&amp;nbsp;1.1 询问各个参与者是否可以正常执行&amp;nbsp;&lt;/b&gt;&lt;/font&gt;" style="edgeLabel;resizable=0;html=1;align=center;verticalAlign=middle;fontSize=16;fillColor=#FFB366;" parent="3hG3ktwHdd7RbcDjbh9i-5" connectable="0" vertex="1">
          <mxGeometry relative="1" as="geometry" />
        </mxCell>
        <mxCell id="3hG3ktwHdd7RbcDjbh9i-7" value="&lt;b&gt;&lt;font color=&quot;#9933ff&quot;&gt;CanCommit&lt;/font&gt;&lt;/b&gt;" style="text;html=1;align=center;verticalAlign=middle;resizable=0;points=[];autosize=1;strokeColor=none;fillColor=none;fontSize=12;" parent="1" vertex="1">
          <mxGeometry x="300" y="170" width="80" height="20" as="geometry" />
        </mxCell>
        <mxCell id="3hG3ktwHdd7RbcDjbh9i-8" value="&lt;font color=&quot;#000000&quot;&gt;3PC允许超时操作&lt;/font&gt;" style="text;html=1;align=center;verticalAlign=middle;resizable=0;points=[];autosize=1;strokeColor=none;fillColor=none;fontSize=12;fontColor=#0000FF;" parent="1" vertex="1">
          <mxGeometry x="600" y="190" width="110" height="20" as="geometry" />
        </mxCell>
        <mxCell id="3hG3ktwHdd7RbcDjbh9i-9" value="&lt;b&gt;&lt;font color=&quot;#9933ff&quot;&gt;CanCommit&lt;/font&gt;&lt;/b&gt;" style="text;html=1;align=center;verticalAlign=middle;resizable=0;points=[];autosize=1;strokeColor=none;fillColor=none;fontSize=12;" parent="1" vertex="1">
          <mxGeometry x="380" y="210" width="80" height="20" as="geometry" />
        </mxCell>
        <mxCell id="3hG3ktwHdd7RbcDjbh9i-10" value="" style="rounded=1;whiteSpace=wrap;html=1;fontSize=12;fontColor=#000000;fillColor=#00FF00;direction=south;" parent="1" vertex="1">
          <mxGeometry x="570" y="230" width="20" height="70" as="geometry" />
        </mxCell>
        <mxCell id="3hG3ktwHdd7RbcDjbh9i-11" value="" style="endArrow=none;dashed=1;html=1;rounded=0;fillColor=#d5e8d4;strokeColor=#FF9933;strokeWidth=3;comic=1;entryX=1;entryY=0.5;entryDx=0;entryDy=0;" parent="1" target="3hG3ktwHdd7RbcDjbh9i-10" edge="1">
          <mxGeometry width="50" height="50" relative="1" as="geometry">
            <mxPoint x="580" y="760" as="sourcePoint" />
            <mxPoint x="550" y="340" as="targetPoint" />
          </mxGeometry>
        </mxCell>
        <mxCell id="3hG3ktwHdd7RbcDjbh9i-12" value="" style="endArrow=classic;html=1;rounded=0;comic=1;fontSize=12;fontColor=#000000;strokeColor=#000000;strokeWidth=3;entryX=0.75;entryY=0;entryDx=0;entryDy=0;" parent="1" target="3hG3ktwHdd7RbcDjbh9i-10" edge="1">
          <mxGeometry width="50" height="50" relative="1" as="geometry">
            <mxPoint x="590" y="243" as="sourcePoint" />
            <mxPoint x="460" y="410" as="targetPoint" />
            <Array as="points">
              <mxPoint x="740" y="243" />
              <mxPoint x="740" y="268" />
              <mxPoint x="740" y="283" />
            </Array>
          </mxGeometry>
        </mxCell>
        <mxCell id="3hG3ktwHdd7RbcDjbh9i-13" value="&lt;font style=&quot;font-size: 12px&quot;&gt;&lt;b&gt;1.2 参与者自己预估判断是否可以执行&lt;/b&gt;&lt;/font&gt;" style="edgeLabel;resizable=0;html=1;align=center;verticalAlign=middle;fontSize=16;fillColor=#FFB366;" parent="1" connectable="0" vertex="1">
          <mxGeometry x="730" y="260" as="geometry" />
        </mxCell>
        <mxCell id="3hG3ktwHdd7RbcDjbh9i-14" value="" style="endArrow=classic;html=1;rounded=0;comic=1;fontSize=16;strokeWidth=3;" parent="1" edge="1">
          <mxGeometry relative="1" as="geometry">
            <mxPoint x="580" y="320" as="sourcePoint" />
            <mxPoint x="180" y="320" as="targetPoint" />
          </mxGeometry>
        </mxCell>
        <mxCell id="3hG3ktwHdd7RbcDjbh9i-15" value="&lt;font style=&quot;font-size: 12px&quot;&gt;&lt;b&gt;&amp;nbsp;1.3 正常执行, 进入 preCommit 阶段, 若不满足或超时,&amp;nbsp;&amp;nbsp;&lt;br&gt;则 absort&lt;/b&gt;&lt;/font&gt;" style="edgeLabel;resizable=0;html=1;align=center;verticalAlign=middle;fontSize=16;fillColor=#FFB366;" parent="3hG3ktwHdd7RbcDjbh9i-14" connectable="0" vertex="1">
          <mxGeometry relative="1" as="geometry" />
        </mxCell>
        <mxCell id="3hG3ktwHdd7RbcDjbh9i-16" value="" style="endArrow=classic;html=1;rounded=0;comic=1;fontSize=16;strokeWidth=3;" parent="1" edge="1">
          <mxGeometry relative="1" as="geometry">
            <mxPoint x="180" y="400" as="sourcePoint" />
            <mxPoint x="580" y="400" as="targetPoint" />
          </mxGeometry>
        </mxCell>
        <mxCell id="3hG3ktwHdd7RbcDjbh9i-17" value="&lt;font style=&quot;font-size: 12px&quot;&gt;&lt;b&gt;&amp;nbsp;2.1 向各个参与者发送预提交的请求&amp;nbsp;&amp;nbsp;&lt;/b&gt;&lt;/font&gt;" style="edgeLabel;resizable=0;html=1;align=center;verticalAlign=middle;fontSize=16;fillColor=#FFB366;" parent="3hG3ktwHdd7RbcDjbh9i-16" connectable="0" vertex="1">
          <mxGeometry relative="1" as="geometry" />
        </mxCell>
        <mxCell id="3hG3ktwHdd7RbcDjbh9i-18" value="&lt;b&gt;&lt;font color=&quot;#9933ff&quot;&gt;preCommit&lt;/font&gt;&lt;/b&gt;" style="text;html=1;align=center;verticalAlign=middle;resizable=0;points=[];autosize=1;strokeColor=none;fillColor=none;fontSize=12;" parent="1" vertex="1">
          <mxGeometry x="350" y="380" width="80" height="20" as="geometry" />
        </mxCell>
        <mxCell id="3hG3ktwHdd7RbcDjbh9i-19" value="" style="rounded=1;whiteSpace=wrap;html=1;fontSize=12;fontColor=#000000;fillColor=#00FF00;direction=south;" parent="1" vertex="1">
          <mxGeometry x="570" y="430" width="20" height="70" as="geometry" />
        </mxCell>
        <mxCell id="3hG3ktwHdd7RbcDjbh9i-20" value="" style="endArrow=classic;html=1;rounded=0;comic=1;fontSize=12;fontColor=#000000;strokeColor=#000000;strokeWidth=3;entryX=0.75;entryY=0;entryDx=0;entryDy=0;" parent="1" target="3hG3ktwHdd7RbcDjbh9i-19" edge="1">
          <mxGeometry width="50" height="50" relative="1" as="geometry">
            <mxPoint x="590" y="443" as="sourcePoint" />
            <mxPoint x="460" y="610" as="targetPoint" />
            <Array as="points">
              <mxPoint x="740" y="443" />
              <mxPoint x="740" y="468" />
              <mxPoint x="740" y="483" />
            </Array>
          </mxGeometry>
        </mxCell>
        <mxCell id="3hG3ktwHdd7RbcDjbh9i-21" value="&lt;font style=&quot;font-size: 12px&quot;&gt;&lt;b&gt;2.2 执行事务, 但不提交&lt;/b&gt;&lt;/font&gt;" style="edgeLabel;resizable=0;html=1;align=center;verticalAlign=middle;fontSize=16;fillColor=#FFB366;" parent="1" connectable="0" vertex="1">
          <mxGeometry x="730" y="460" as="geometry" />
        </mxCell>
        <mxCell id="3hG3ktwHdd7RbcDjbh9i-22" value="" style="endArrow=classic;html=1;rounded=0;comic=1;fontSize=16;strokeWidth=3;" parent="1" edge="1">
          <mxGeometry relative="1" as="geometry">
            <mxPoint x="580" y="520" as="sourcePoint" />
            <mxPoint x="180" y="520" as="targetPoint" />
          </mxGeometry>
        </mxCell>
        <mxCell id="3hG3ktwHdd7RbcDjbh9i-23" value="&lt;span style=&quot;font-size: 12px&quot;&gt;&lt;b&gt;&amp;nbsp;2.3 接收参与者的反馈. 正常执行, 则 commit;&amp;nbsp;&lt;br&gt;失败或超时, 则 rollback.&amp;nbsp;&amp;nbsp;&lt;/b&gt;&lt;/span&gt;" style="edgeLabel;resizable=0;html=1;align=center;verticalAlign=middle;fontSize=16;fillColor=#FFB366;" parent="3hG3ktwHdd7RbcDjbh9i-22" connectable="0" vertex="1">
          <mxGeometry relative="1" as="geometry" />
        </mxCell>
        <mxCell id="3hG3ktwHdd7RbcDjbh9i-24" value="" style="endArrow=classic;html=1;rounded=0;comic=1;fontSize=16;strokeWidth=3;" parent="1" edge="1">
          <mxGeometry relative="1" as="geometry">
            <mxPoint x="190" y="600" as="sourcePoint" />
            <mxPoint x="590" y="600" as="targetPoint" />
          </mxGeometry>
        </mxCell>
        <mxCell id="3hG3ktwHdd7RbcDjbh9i-25" value="&lt;span style=&quot;font-size: 12px&quot;&gt;&lt;b&gt;&amp;nbsp;3.1 向所有参与者发起事务提交的请求&amp;nbsp;&lt;/b&gt;&lt;/span&gt;" style="edgeLabel;resizable=0;html=1;align=center;verticalAlign=middle;fontSize=16;fillColor=#FFB366;" parent="3hG3ktwHdd7RbcDjbh9i-24" connectable="0" vertex="1">
          <mxGeometry relative="1" as="geometry">
            <mxPoint x="-5" as="offset" />
          </mxGeometry>
        </mxCell>
        <mxCell id="3hG3ktwHdd7RbcDjbh9i-26" value="&lt;b&gt;&lt;font color=&quot;#9933ff&quot;&gt;doCommit&lt;/font&gt;&lt;/b&gt;" style="text;html=1;align=center;verticalAlign=middle;resizable=0;points=[];autosize=1;strokeColor=none;fillColor=none;fontSize=12;" parent="1" vertex="1">
          <mxGeometry x="350" y="580" width="70" height="20" as="geometry" />
        </mxCell>
        <mxCell id="3hG3ktwHdd7RbcDjbh9i-27" value="" style="rounded=1;whiteSpace=wrap;html=1;fontSize=12;fontColor=#000000;fillColor=#00FF00;direction=south;" parent="1" vertex="1">
          <mxGeometry x="570" y="625" width="20" height="70" as="geometry" />
        </mxCell>
        <mxCell id="3hG3ktwHdd7RbcDjbh9i-28" value="" style="endArrow=classic;html=1;rounded=0;comic=1;fontSize=12;fontColor=#000000;strokeColor=#000000;strokeWidth=3;entryX=0.75;entryY=0;entryDx=0;entryDy=0;" parent="1" target="3hG3ktwHdd7RbcDjbh9i-27" edge="1">
          <mxGeometry width="50" height="50" relative="1" as="geometry">
            <mxPoint x="590" y="638" as="sourcePoint" />
            <mxPoint x="460" y="805" as="targetPoint" />
            <Array as="points">
              <mxPoint x="740" y="638" />
              <mxPoint x="740" y="663" />
              <mxPoint x="740" y="678" />
            </Array>
          </mxGeometry>
        </mxCell>
        <mxCell id="3hG3ktwHdd7RbcDjbh9i-29" value="&lt;font style=&quot;font-size: 12px&quot;&gt;&lt;b&gt;3.2 收到通知提交事务或者超时&lt;/b&gt;&lt;/font&gt;" style="edgeLabel;resizable=0;html=1;align=center;verticalAlign=middle;fontSize=16;fillColor=#FFB366;" parent="1" connectable="0" vertex="1">
          <mxGeometry x="730" y="655" as="geometry" />
        </mxCell>
        <mxCell id="3hG3ktwHdd7RbcDjbh9i-30" value="" style="endArrow=classic;html=1;rounded=0;comic=1;fontSize=16;strokeWidth=3;" parent="1" edge="1">
          <mxGeometry relative="1" as="geometry">
            <mxPoint x="580" y="720" as="sourcePoint" />
            <mxPoint x="180" y="720" as="targetPoint" />
          </mxGeometry>
        </mxCell>
        <mxCell id="3hG3ktwHdd7RbcDjbh9i-31" value="&lt;span style=&quot;font-size: 12px&quot;&gt;&lt;b&gt;&amp;nbsp;3.3 反馈事务提交的结果&amp;nbsp;&lt;/b&gt;&lt;/span&gt;" style="edgeLabel;resizable=0;html=1;align=center;verticalAlign=middle;fontSize=16;fillColor=#FFB366;" parent="3hG3ktwHdd7RbcDjbh9i-30" connectable="0" vertex="1">
          <mxGeometry relative="1" as="geometry" />
        </mxCell>
        <mxCell id="3hG3ktwHdd7RbcDjbh9i-32" value="&lt;font style=&quot;font-size: 24px&quot;&gt;&lt;b&gt;3PC&lt;/b&gt;&lt;/font&gt;" style="text;html=1;align=center;verticalAlign=middle;resizable=0;points=[];autosize=1;strokeColor=none;fillColor=none;" parent="1" vertex="1">
          <mxGeometry x="320" y="790" width="60" height="20" as="geometry" />
        </mxCell>
        <mxCell id="3hG3ktwHdd7RbcDjbh9i-33" value="" style="line;strokeWidth=2;html=1;fontSize=24;" parent="1" vertex="1">
          <mxGeometry x="-810" y="890" width="3290" height="10" as="geometry" />
        </mxCell>
        <mxCell id="3hG3ktwHdd7RbcDjbh9i-34" value="&lt;font style=&quot;font-size: 18px&quot;&gt;&lt;b&gt;业务应用&lt;/b&gt;&lt;/font&gt;" style="rounded=1;whiteSpace=wrap;html=1;comic=1;fillColor=#50C7C7;" parent="1" vertex="1">
          <mxGeometry x="50" y="1005" width="150" height="70" as="geometry" />
        </mxCell>
        <mxCell id="3hG3ktwHdd7RbcDjbh9i-35" value="&lt;b style=&quot;font-size: 18px&quot;&gt;事务协调者&lt;/b&gt;" style="rounded=1;whiteSpace=wrap;html=1;comic=1;fillColor=#FF9933;" parent="1" vertex="1">
          <mxGeometry x="50" y="1245" width="150" height="70" as="geometry" />
        </mxCell>
        <mxCell id="3hG3ktwHdd7RbcDjbh9i-36" value="" style="endArrow=classic;html=1;rounded=0;fontSize=18;exitX=0.25;exitY=1;exitDx=0;exitDy=0;entryX=0.25;entryY=0;entryDx=0;entryDy=0;strokeColor=#50C7C7;comic=1;strokeWidth=2;" parent="1" source="3hG3ktwHdd7RbcDjbh9i-34" target="3hG3ktwHdd7RbcDjbh9i-35" edge="1">
          <mxGeometry width="50" height="50" relative="1" as="geometry">
            <mxPoint x="390" y="1260" as="sourcePoint" />
            <mxPoint x="440" y="1210" as="targetPoint" />
          </mxGeometry>
        </mxCell>
        <mxCell id="3hG3ktwHdd7RbcDjbh9i-37" value="" style="endArrow=classic;html=1;rounded=0;fontSize=18;exitX=0.813;exitY=0.986;exitDx=0;exitDy=0;strokeColor=#50C7C7;comic=1;strokeWidth=2;exitPerimeter=0;entryX=0.82;entryY=0.014;entryDx=0;entryDy=0;entryPerimeter=0;" parent="1" source="3hG3ktwHdd7RbcDjbh9i-34" target="3hG3ktwHdd7RbcDjbh9i-35" edge="1">
          <mxGeometry width="50" height="50" relative="1" as="geometry">
            <mxPoint x="167.5" y="1090" as="sourcePoint" />
            <mxPoint x="242" y="1250" as="targetPoint" />
          </mxGeometry>
        </mxCell>
        <mxCell id="3hG3ktwHdd7RbcDjbh9i-38" value="&lt;font size=&quot;1&quot; color=&quot;#50c7c7&quot;&gt;&lt;b style=&quot;font-size: 14px&quot;&gt;1. 启动事务&lt;/b&gt;&lt;/font&gt;" style="text;html=1;align=center;verticalAlign=middle;resizable=0;points=[];autosize=1;strokeColor=none;fillColor=none;fontSize=18;" parent="1" vertex="1">
          <mxGeometry x="10" y="1160" width="90" height="30" as="geometry" />
        </mxCell>
        <mxCell id="3hG3ktwHdd7RbcDjbh9i-39" value="&lt;font size=&quot;1&quot; color=&quot;#50c7c7&quot;&gt;&lt;b style=&quot;font-size: 14px&quot;&gt;3. 提交或回滚&lt;br&gt;事务&lt;/b&gt;&lt;/font&gt;" style="text;html=1;align=center;verticalAlign=middle;resizable=0;points=[];autosize=1;strokeColor=none;fillColor=none;fontSize=18;" parent="1" vertex="1">
          <mxGeometry x="170" y="1160" width="100" height="60" as="geometry" />
        </mxCell>
        <mxCell id="3hG3ktwHdd7RbcDjbh9i-40" value="" style="edgeStyle=elbowEdgeStyle;elbow=horizontal;endArrow=classic;html=1;rounded=0;comic=1;fontSize=14;fontColor=#50C7C7;strokeColor=#50C7C7;strokeWidth=2;exitX=1;exitY=0.5;exitDx=0;exitDy=0;entryX=0;entryY=0.5;entryDx=0;entryDy=0;" parent="1" source="3hG3ktwHdd7RbcDjbh9i-34" target="3hG3ktwHdd7RbcDjbh9i-44" edge="1">
          <mxGeometry width="50" height="50" relative="1" as="geometry">
            <mxPoint x="460" y="1085" as="sourcePoint" />
            <mxPoint x="550" y="1020" as="targetPoint" />
            <Array as="points">
              <mxPoint x="360" y="1030" />
              <mxPoint x="360" y="1045" />
              <mxPoint x="560" y="1140" />
            </Array>
          </mxGeometry>
        </mxCell>
        <mxCell id="3hG3ktwHdd7RbcDjbh9i-41" value="" style="endArrow=classic;html=1;rounded=0;comic=1;fontSize=14;fontColor=#50C7C7;strokeColor=#50C7C7;strokeWidth=2;" parent="1" target="3hG3ktwHdd7RbcDjbh9i-49" edge="1">
          <mxGeometry width="50" height="50" relative="1" as="geometry">
            <mxPoint x="360" y="1040" as="sourcePoint" />
            <mxPoint x="480" y="1160" as="targetPoint" />
            <Array as="points">
              <mxPoint x="360" y="1233" />
            </Array>
          </mxGeometry>
        </mxCell>
        <mxCell id="3hG3ktwHdd7RbcDjbh9i-42" value="" style="endArrow=classic;html=1;rounded=0;comic=1;fontSize=14;fontColor=#50C7C7;strokeColor=#FF9933;strokeWidth=2;dashed=1;entryX=0;entryY=0.5;entryDx=0;entryDy=0;" parent="1" target="3hG3ktwHdd7RbcDjbh9i-45" edge="1">
          <mxGeometry width="50" height="50" relative="1" as="geometry">
            <mxPoint x="480" y="1260" as="sourcePoint" />
            <mxPoint x="560" y="1157.5" as="targetPoint" />
            <Array as="points">
              <mxPoint x="480" y="1023" />
            </Array>
          </mxGeometry>
        </mxCell>
        <mxCell id="3hG3ktwHdd7RbcDjbh9i-43" value="" style="shape=card;whiteSpace=wrap;html=1;fillColor=default;align=left;size=16;deletable=1;expand=1;comic=1;noLabel=0;enumerate=1;rounded=1;fontSize=14;fontColor=#50C7C7;strokeWidth=2;strokeColor=#CCCCFF;fillOpacity=50;strokeOpacity=100;overflow=visible;" parent="1" vertex="1">
          <mxGeometry x="580" y="930" width="200" height="150" as="geometry" />
        </mxCell>
        <mxCell id="3hG3ktwHdd7RbcDjbh9i-44" value="&lt;b&gt;Try 接口&lt;/b&gt;" style="rounded=1;whiteSpace=wrap;html=1;comic=1;fontSize=14;fillColor=#dae8fc;strokeColor=#6c8ebf;" parent="1" vertex="1">
          <mxGeometry x="610" y="980" width="140" height="25" as="geometry" />
        </mxCell>
        <mxCell id="3hG3ktwHdd7RbcDjbh9i-45" value="&lt;b&gt;Confirm 接口&lt;/b&gt;" style="rounded=1;whiteSpace=wrap;html=1;comic=1;fontSize=14;fillColor=#d5e8d4;strokeColor=#82b366;" parent="1" vertex="1">
          <mxGeometry x="610" y="1010" width="140" height="25" as="geometry" />
        </mxCell>
        <mxCell id="3hG3ktwHdd7RbcDjbh9i-46" value="&lt;b&gt;Cancel 接口&lt;/b&gt;" style="rounded=1;whiteSpace=wrap;html=1;comic=1;fontSize=14;fillColor=#f8cecc;strokeColor=#b85450;" parent="1" vertex="1">
          <mxGeometry x="610" y="1040" width="140" height="25" as="geometry" />
        </mxCell>
        <mxCell id="3hG3ktwHdd7RbcDjbh9i-47" value="&lt;font color=&quot;#ccccff&quot; size=&quot;1&quot;&gt;&lt;b style=&quot;font-size: 20px&quot;&gt;服务A&lt;/b&gt;&lt;/font&gt;" style="text;html=1;align=center;verticalAlign=middle;resizable=0;points=[];autosize=1;strokeColor=none;fillColor=none;fontSize=14;fontColor=#50C7C7;" parent="1" vertex="1">
          <mxGeometry x="645" y="940" width="70" height="30" as="geometry" />
        </mxCell>
        <mxCell id="3hG3ktwHdd7RbcDjbh9i-48" value="" style="shape=card;whiteSpace=wrap;html=1;fillColor=#FFFFFF;align=left;size=16;deletable=1;expand=1;comic=1;noLabel=0;enumerate=1;rounded=1;fontSize=14;fontColor=#50C7C7;strokeWidth=2;strokeColor=#CCCCFF;fillOpacity=50;" parent="1" vertex="1">
          <mxGeometry x="580" y="1170" width="200" height="150" as="geometry" />
        </mxCell>
        <mxCell id="3hG3ktwHdd7RbcDjbh9i-49" value="&lt;b&gt;Try 接口&lt;/b&gt;" style="rounded=1;whiteSpace=wrap;html=1;comic=1;fontSize=14;fillColor=#dae8fc;strokeColor=#6c8ebf;" parent="1" vertex="1">
          <mxGeometry x="610" y="1220" width="140" height="25" as="geometry" />
        </mxCell>
        <mxCell id="3hG3ktwHdd7RbcDjbh9i-50" value="&lt;b&gt;Confirm 接口&lt;/b&gt;" style="rounded=1;whiteSpace=wrap;html=1;comic=1;fontSize=14;fillColor=#d5e8d4;strokeColor=#82b366;" parent="1" vertex="1">
          <mxGeometry x="610" y="1250" width="140" height="25" as="geometry" />
        </mxCell>
        <mxCell id="3hG3ktwHdd7RbcDjbh9i-51" value="&lt;b&gt;Cancel 接口&lt;/b&gt;" style="rounded=1;whiteSpace=wrap;html=1;comic=1;fontSize=14;fillColor=#f8cecc;strokeColor=#b85450;" parent="1" vertex="1">
          <mxGeometry x="610" y="1280" width="140" height="25" as="geometry" />
        </mxCell>
        <mxCell id="3hG3ktwHdd7RbcDjbh9i-52" value="&lt;font color=&quot;#ccccff&quot; size=&quot;1&quot;&gt;&lt;b style=&quot;font-size: 20px&quot;&gt;服务B&lt;/b&gt;&lt;/font&gt;" style="text;html=1;align=center;verticalAlign=middle;resizable=0;points=[];autosize=1;strokeColor=none;fillColor=none;fontSize=14;fontColor=#50C7C7;" parent="1" vertex="1">
          <mxGeometry x="640" y="1180" width="70" height="30" as="geometry" />
        </mxCell>
        <mxCell id="3hG3ktwHdd7RbcDjbh9i-53" value="" style="endArrow=classic;html=1;rounded=0;comic=1;fontSize=14;fontColor=#50C7C7;strokeColor=#FF9933;strokeWidth=2;dashed=1;entryX=0;entryY=0.5;entryDx=0;entryDy=0;targetPerimeterSpacing=2;sourcePerimeterSpacing=2;jumpStyle=gap;" parent="1" target="3hG3ktwHdd7RbcDjbh9i-46" edge="1">
          <mxGeometry width="50" height="50" relative="1" as="geometry">
            <mxPoint x="530" y="1300" as="sourcePoint" />
            <mxPoint x="620" y="1032.5" as="targetPoint" />
            <Array as="points">
              <mxPoint x="530" y="1053" />
            </Array>
          </mxGeometry>
        </mxCell>
        <mxCell id="3hG3ktwHdd7RbcDjbh9i-54" value="&lt;font size=&quot;1&quot; color=&quot;#50c7c7&quot;&gt;&lt;b style=&quot;font-size: 14px&quot;&gt;2. 调用 Confirm 接口&lt;/b&gt;&lt;/font&gt;" style="text;html=1;align=center;verticalAlign=middle;resizable=0;points=[];autosize=1;strokeColor=none;fillColor=none;fontSize=18;" parent="1" vertex="1">
          <mxGeometry x="205" y="1005" width="150" height="30" as="geometry" />
        </mxCell>
        <mxCell id="3hG3ktwHdd7RbcDjbh9i-55" value="" style="endArrow=classic;html=1;rounded=0;dashed=1;comic=1;fontSize=20;fontColor=#FF33FF;sourcePerimeterSpacing=2;targetPerimeterSpacing=2;strokeColor=#FF9933;strokeWidth=2;jumpStyle=gap;exitX=1;exitY=0.25;exitDx=0;exitDy=0;entryX=0;entryY=0.5;entryDx=0;entryDy=0;" parent="1" source="3hG3ktwHdd7RbcDjbh9i-35" target="3hG3ktwHdd7RbcDjbh9i-50" edge="1">
          <mxGeometry width="50" height="50" relative="1" as="geometry">
            <mxPoint x="370" y="1260" as="sourcePoint" />
            <mxPoint x="420" y="1210" as="targetPoint" />
          </mxGeometry>
        </mxCell>
        <mxCell id="3hG3ktwHdd7RbcDjbh9i-56" value="" style="endArrow=classic;html=1;rounded=0;dashed=1;comic=1;fontSize=20;fontColor=#FF33FF;sourcePerimeterSpacing=2;targetPerimeterSpacing=2;strokeColor=#FF9933;strokeWidth=2;jumpStyle=gap;exitX=1;exitY=0.25;exitDx=0;exitDy=0;entryX=0;entryY=0.5;entryDx=0;entryDy=0;" parent="1" edge="1">
          <mxGeometry width="50" height="50" relative="1" as="geometry">
            <mxPoint x="200" y="1300" as="sourcePoint" />
            <mxPoint x="610" y="1300" as="targetPoint" />
          </mxGeometry>
        </mxCell>
        <mxCell id="3hG3ktwHdd7RbcDjbh9i-57" value="&lt;font size=&quot;1&quot; color=&quot;#ff9933&quot;&gt;&lt;b style=&quot;font-size: 14px&quot;&gt;4. 调用 Confirm 接口&lt;/b&gt;&lt;/font&gt;" style="text;html=1;align=center;verticalAlign=middle;resizable=0;points=[];autosize=1;strokeColor=none;fillColor=none;fontSize=18;" parent="1" vertex="1">
          <mxGeometry x="205" y="1230" width="150" height="30" as="geometry" />
        </mxCell>
        <mxCell id="3hG3ktwHdd7RbcDjbh9i-58" value="&lt;font size=&quot;1&quot; color=&quot;#ff9933&quot;&gt;&lt;b style=&quot;font-size: 14px&quot;&gt;4. 调用 Cancel 接口&lt;/b&gt;&lt;/font&gt;" style="text;html=1;align=center;verticalAlign=middle;resizable=0;points=[];autosize=1;strokeColor=none;fillColor=none;fontSize=18;" parent="1" vertex="1">
          <mxGeometry x="210" y="1300" width="140" height="30" as="geometry" />
        </mxCell>
        <mxCell id="3hG3ktwHdd7RbcDjbh9i-59" value="" style="shape=datastore;whiteSpace=wrap;html=1;rounded=1;comic=0;fontSize=20;strokeColor=#007FFF;strokeWidth=2;fillColor=#d5e8d4;" parent="1" vertex="1">
          <mxGeometry x="880" y="945" width="80" height="120" as="geometry" />
        </mxCell>
        <mxCell id="3hG3ktwHdd7RbcDjbh9i-60" value="" style="shape=datastore;whiteSpace=wrap;html=1;rounded=1;comic=0;fontSize=20;strokeColor=#82b366;strokeWidth=2;fillColor=#d5e8d4;" parent="1" vertex="1">
          <mxGeometry x="880" y="1180" width="80" height="120" as="geometry" />
        </mxCell>
        <mxCell id="3hG3ktwHdd7RbcDjbh9i-61" value="" style="endArrow=classic;html=1;rounded=0;comic=1;fontSize=20;fontColor=#FF9933;sourcePerimeterSpacing=2;targetPerimeterSpacing=2;strokeColor=#007FFF;strokeWidth=2;jumpStyle=gap;exitX=1;exitY=0.5;exitDx=0;exitDy=0;exitPerimeter=0;entryX=0;entryY=0.5;entryDx=0;entryDy=0;" parent="1" source="3hG3ktwHdd7RbcDjbh9i-43" target="3hG3ktwHdd7RbcDjbh9i-59" edge="1">
          <mxGeometry width="50" height="50" relative="1" as="geometry">
            <mxPoint x="510" y="1120" as="sourcePoint" />
            <mxPoint x="560" y="1070" as="targetPoint" />
          </mxGeometry>
        </mxCell>
        <mxCell id="3hG3ktwHdd7RbcDjbh9i-62" value="" style="endArrow=classic;html=1;rounded=0;comic=1;fontSize=20;fontColor=#FF9933;sourcePerimeterSpacing=2;targetPerimeterSpacing=2;strokeColor=#007FFF;strokeWidth=2;jumpStyle=gap;entryX=0.02;entryY=0.584;entryDx=0;entryDy=0;entryPerimeter=0;" parent="1" target="3hG3ktwHdd7RbcDjbh9i-60" edge="1">
          <mxGeometry width="50" height="50" relative="1" as="geometry">
            <mxPoint x="780" y="1250" as="sourcePoint" />
            <mxPoint x="850" y="1410" as="targetPoint" />
          </mxGeometry>
        </mxCell>
        <mxCell id="3hG3ktwHdd7RbcDjbh9i-63" value="&lt;font color=&quot;#007fff&quot;&gt;数据库&lt;/font&gt;" style="text;html=1;align=center;verticalAlign=middle;resizable=0;points=[];autosize=1;strokeColor=none;fillColor=none;fontSize=20;fontColor=#FF9933;" parent="1" vertex="1">
          <mxGeometry x="880" y="1075" width="80" height="30" as="geometry" />
        </mxCell>
        <mxCell id="3hG3ktwHdd7RbcDjbh9i-64" value="&lt;font color=&quot;#007fff&quot;&gt;数据库&lt;/font&gt;" style="text;html=1;align=center;verticalAlign=middle;resizable=0;points=[];autosize=1;strokeColor=none;fillColor=none;fontSize=20;fontColor=#FF9933;" parent="1" vertex="1">
          <mxGeometry x="880" y="1305" width="80" height="30" as="geometry" />
        </mxCell>
        <mxCell id="3hG3ktwHdd7RbcDjbh9i-65" value="&lt;font color=&quot;#000000&quot; size=&quot;1&quot;&gt;&lt;span style=&quot;font-size: 24px&quot;&gt;TCC&amp;nbsp;&lt;/span&gt;&lt;/font&gt;" style="text;html=1;align=center;verticalAlign=middle;resizable=0;points=[];autosize=1;strokeColor=none;fillColor=none;fontSize=20;fontColor=#007FFF;" parent="1" vertex="1">
          <mxGeometry x="414" y="1355" width="70" height="30" as="geometry" />
        </mxCell>
        <mxCell id="3hG3ktwHdd7RbcDjbh9i-66" value="&lt;font style=&quot;font-size: 18px&quot;&gt;&lt;b&gt;主业务&lt;/b&gt;&lt;/font&gt;" style="rounded=1;whiteSpace=wrap;html=1;comic=1;fillColor=#50C7C7;" parent="1" vertex="1">
          <mxGeometry x="55" y="1670" width="150" height="70" as="geometry" />
        </mxCell>
        <mxCell id="3hG3ktwHdd7RbcDjbh9i-67" value="&lt;font style=&quot;font-size: 18px&quot;&gt;&lt;b&gt;库存服务&lt;/b&gt;&lt;/font&gt;" style="rounded=1;whiteSpace=wrap;html=1;comic=1;fillColor=#50C7C7;" parent="1" vertex="1">
          <mxGeometry x="620" y="1550" width="150" height="70" as="geometry" />
        </mxCell>
        <mxCell id="3hG3ktwHdd7RbcDjbh9i-68" value="&lt;b style=&quot;font-size: 18px&quot;&gt;订单服务&lt;/b&gt;" style="rounded=1;whiteSpace=wrap;html=1;comic=1;fillColor=#FF9933;" parent="1" vertex="1">
          <mxGeometry x="620" y="1770" width="150" height="70" as="geometry" />
        </mxCell>
        <mxCell id="3hG3ktwHdd7RbcDjbh9i-69" value="" style="endArrow=classic;html=1;rounded=0;comic=1;fontSize=24;fontColor=#000000;sourcePerimeterSpacing=2;targetPerimeterSpacing=2;strokeColor=#007FFF;strokeWidth=2;jumpStyle=gap;exitX=1;exitY=0.5;exitDx=0;exitDy=0;entryX=0;entryY=0.5;entryDx=0;entryDy=0;" parent="1" source="3hG3ktwHdd7RbcDjbh9i-66" target="3hG3ktwHdd7RbcDjbh9i-67" edge="1">
          <mxGeometry relative="1" as="geometry">
            <mxPoint x="540" y="1610" as="sourcePoint" />
            <mxPoint x="640" y="1610" as="targetPoint" />
          </mxGeometry>
        </mxCell>
        <mxCell id="3hG3ktwHdd7RbcDjbh9i-70" value="检查, 预留库存" style="edgeLabel;resizable=0;html=1;align=center;verticalAlign=middle;rounded=1;comic=0;fontSize=18;fontColor=#000000;strokeColor=#007FFF;strokeWidth=2;fillColor=#FFCCCC;" parent="3hG3ktwHdd7RbcDjbh9i-69" connectable="0" vertex="1">
          <mxGeometry relative="1" as="geometry" />
        </mxCell>
        <mxCell id="3hG3ktwHdd7RbcDjbh9i-71" value="" style="endArrow=classic;html=1;rounded=0;comic=1;fontSize=24;fontColor=#000000;sourcePerimeterSpacing=2;targetPerimeterSpacing=2;strokeColor=#007FFF;strokeWidth=2;jumpStyle=gap;entryX=0;entryY=0.5;entryDx=0;entryDy=0;" parent="1" target="3hG3ktwHdd7RbcDjbh9i-68" edge="1">
          <mxGeometry relative="1" as="geometry">
            <mxPoint x="210" y="1710" as="sourcePoint" />
            <mxPoint x="630" y="1595" as="targetPoint" />
          </mxGeometry>
        </mxCell>
        <mxCell id="3hG3ktwHdd7RbcDjbh9i-72" value="创建订单" style="edgeLabel;resizable=0;html=1;align=center;verticalAlign=middle;rounded=1;comic=0;fontSize=18;fontColor=#000000;strokeColor=#007FFF;strokeWidth=2;fillColor=#FFCCCC;" parent="3hG3ktwHdd7RbcDjbh9i-71" connectable="0" vertex="1">
          <mxGeometry relative="1" as="geometry" />
        </mxCell>
        <mxCell id="3hG3ktwHdd7RbcDjbh9i-73" value="更新库存为98, 并设置冻结&lt;br&gt;库存 +2&amp;nbsp;" style="text;html=1;align=center;verticalAlign=middle;resizable=0;points=[];autosize=1;strokeColor=none;fillColor=none;fontSize=18;fontColor=#000000;" parent="1" vertex="1">
          <mxGeometry x="597" y="1630" width="230" height="50" as="geometry" />
        </mxCell>
        <mxCell id="3hG3ktwHdd7RbcDjbh9i-74" value="创建订单, 订单状态为待确认" style="text;html=1;align=center;verticalAlign=middle;resizable=0;points=[];autosize=1;strokeColor=none;fillColor=none;fontSize=18;fontColor=#000000;" parent="1" vertex="1">
          <mxGeometry x="597" y="1850" width="240" height="30" as="geometry" />
        </mxCell>
        <mxCell id="3hG3ktwHdd7RbcDjbh9i-75" value="&lt;font style=&quot;font-size: 24px&quot;&gt;Try 阶段&lt;/font&gt;" style="text;html=1;align=center;verticalAlign=middle;resizable=0;points=[];autosize=1;strokeColor=none;fillColor=none;fontSize=18;fontColor=#000000;" parent="1" vertex="1">
          <mxGeometry x="340" y="1850" width="100" height="30" as="geometry" />
        </mxCell>
        <mxCell id="3hG3ktwHdd7RbcDjbh9i-76" value="&lt;font style=&quot;font-size: 18px&quot;&gt;&lt;b&gt;主业务&lt;/b&gt;&lt;/font&gt;" style="rounded=1;whiteSpace=wrap;html=1;comic=1;fillColor=#50C7C7;" parent="1" vertex="1">
          <mxGeometry x="50" y="2160" width="150" height="100" as="geometry" />
        </mxCell>
        <mxCell id="3hG3ktwHdd7RbcDjbh9i-77" value="&lt;font style=&quot;font-size: 18px&quot;&gt;&lt;b&gt;库存服务&lt;/b&gt;&lt;/font&gt;" style="rounded=1;whiteSpace=wrap;html=1;comic=1;fillColor=#50C7C7;" parent="1" vertex="1">
          <mxGeometry x="470" y="2055" width="150" height="70" as="geometry" />
        </mxCell>
        <mxCell id="3hG3ktwHdd7RbcDjbh9i-78" value="&lt;b style=&quot;font-size: 18px&quot;&gt;订单服务&lt;/b&gt;" style="rounded=1;whiteSpace=wrap;html=1;comic=1;fillColor=#FF9933;" parent="1" vertex="1">
          <mxGeometry x="470" y="2270" width="150" height="70" as="geometry" />
        </mxCell>
        <mxCell id="3hG3ktwHdd7RbcDjbh9i-79" value="" style="endArrow=classic;html=1;rounded=0;comic=1;fontSize=24;fontColor=#000000;sourcePerimeterSpacing=2;targetPerimeterSpacing=2;strokeColor=#333333;strokeWidth=2;jumpStyle=gap;exitX=1;exitY=0.143;exitDx=0;exitDy=0;exitPerimeter=0;entryX=0;entryY=0.5;entryDx=0;entryDy=0;" parent="1" source="3hG3ktwHdd7RbcDjbh9i-76" target="3hG3ktwHdd7RbcDjbh9i-77" edge="1">
          <mxGeometry relative="1" as="geometry">
            <mxPoint x="555" y="2120" as="sourcePoint" />
            <mxPoint x="640" y="2090" as="targetPoint" />
          </mxGeometry>
        </mxCell>
        <mxCell id="3hG3ktwHdd7RbcDjbh9i-80" value="检查, 预留库存" style="edgeLabel;resizable=0;html=1;align=center;verticalAlign=middle;rounded=1;comic=0;fontSize=18;fontColor=#000000;strokeColor=#007FFF;strokeWidth=2;fillColor=#FFCCCC;" parent="3hG3ktwHdd7RbcDjbh9i-79" connectable="0" vertex="1">
          <mxGeometry relative="1" as="geometry">
            <mxPoint y="-5" as="offset" />
          </mxGeometry>
        </mxCell>
        <mxCell id="3hG3ktwHdd7RbcDjbh9i-81" value="" style="endArrow=classic;html=1;rounded=0;comic=1;fontSize=24;fontColor=#000000;sourcePerimeterSpacing=2;targetPerimeterSpacing=2;strokeColor=#333333;strokeWidth=2;jumpStyle=gap;entryX=0;entryY=0.5;entryDx=0;entryDy=0;" parent="1" target="3hG3ktwHdd7RbcDjbh9i-78" edge="1">
          <mxGeometry relative="1" as="geometry">
            <mxPoint x="200" y="2220" as="sourcePoint" />
            <mxPoint x="597" y="2580" as="targetPoint" />
          </mxGeometry>
        </mxCell>
        <mxCell id="3hG3ktwHdd7RbcDjbh9i-82" value="创建订单" style="edgeLabel;resizable=0;html=1;align=center;verticalAlign=middle;rounded=1;comic=0;fontSize=18;fontColor=#000000;strokeColor=#007FFF;strokeWidth=2;fillColor=#FFCCCC;" parent="3hG3ktwHdd7RbcDjbh9i-81" connectable="0" vertex="1">
          <mxGeometry relative="1" as="geometry">
            <mxPoint y="-4" as="offset" />
          </mxGeometry>
        </mxCell>
        <mxCell id="3hG3ktwHdd7RbcDjbh9i-83" value="更新库存为98, 并设置冻结&lt;br&gt;库存 +2&amp;nbsp;" style="text;html=1;align=center;verticalAlign=middle;resizable=0;points=[];autosize=1;strokeColor=none;fillColor=none;fontSize=18;fontColor=#000000;" parent="1" vertex="1">
          <mxGeometry x="430" y="2140" width="230" height="50" as="geometry" />
        </mxCell>
        <mxCell id="3hG3ktwHdd7RbcDjbh9i-84" value="创建订单, 订单状态为待确认" style="text;html=1;align=center;verticalAlign=middle;resizable=0;points=[];autosize=1;strokeColor=none;fillColor=none;fontSize=18;fontColor=#000000;" parent="1" vertex="1">
          <mxGeometry x="430" y="2350" width="240" height="30" as="geometry" />
        </mxCell>
        <mxCell id="3hG3ktwHdd7RbcDjbh9i-85" value="&lt;font style=&quot;font-size: 24px&quot;&gt;Try 阶段&lt;/font&gt;" style="text;html=1;align=center;verticalAlign=middle;resizable=0;points=[];autosize=1;strokeColor=none;fillColor=none;fontSize=18;fontColor=#000000;" parent="1" vertex="1">
          <mxGeometry x="280" y="2360" width="100" height="30" as="geometry" />
        </mxCell>
        <mxCell id="3hG3ktwHdd7RbcDjbh9i-86" value="" style="endArrow=classic;html=1;rounded=0;comic=1;fontSize=24;fontColor=#000000;sourcePerimeterSpacing=2;targetPerimeterSpacing=2;strokeColor=#333333;strokeWidth=2;jumpStyle=gap;exitX=0;exitY=0.75;exitDx=0;exitDy=0;dashed=1;entryX=1;entryY=0.75;entryDx=0;entryDy=0;" parent="1" source="3hG3ktwHdd7RbcDjbh9i-78" target="3hG3ktwHdd7RbcDjbh9i-76" edge="1">
          <mxGeometry relative="1" as="geometry">
            <mxPoint x="224.99999999999977" y="2470" as="sourcePoint" />
            <mxPoint x="220" y="2240" as="targetPoint" />
          </mxGeometry>
        </mxCell>
        <mxCell id="3hG3ktwHdd7RbcDjbh9i-87" value="执行成功" style="edgeLabel;resizable=0;html=1;align=center;verticalAlign=middle;rounded=1;comic=0;fontSize=18;fontColor=#000000;strokeColor=#007FFF;strokeWidth=2;fillColor=#FFCCCC;" parent="3hG3ktwHdd7RbcDjbh9i-86" connectable="0" vertex="1">
          <mxGeometry relative="1" as="geometry">
            <mxPoint y="4" as="offset" />
          </mxGeometry>
        </mxCell>
        <mxCell id="3hG3ktwHdd7RbcDjbh9i-88" value="" style="endArrow=classic;html=1;rounded=0;comic=1;fontSize=24;fontColor=#000000;sourcePerimeterSpacing=2;targetPerimeterSpacing=2;strokeColor=#333333;strokeWidth=2;jumpStyle=gap;dashed=1;exitX=0;exitY=0.75;exitDx=0;exitDy=0;" parent="1" source="3hG3ktwHdd7RbcDjbh9i-77" target="3hG3ktwHdd7RbcDjbh9i-76" edge="1">
          <mxGeometry relative="1" as="geometry">
            <mxPoint x="610" y="2640" as="sourcePoint" />
            <mxPoint x="330" y="2210" as="targetPoint" />
          </mxGeometry>
        </mxCell>
        <mxCell id="3hG3ktwHdd7RbcDjbh9i-89" value="执行成功" style="edgeLabel;resizable=0;html=1;align=center;verticalAlign=middle;rounded=1;comic=0;fontSize=18;fontColor=#000000;strokeColor=#007FFF;strokeWidth=2;fillColor=#FFCCCC;" parent="3hG3ktwHdd7RbcDjbh9i-88" connectable="0" vertex="1">
          <mxGeometry relative="1" as="geometry">
            <mxPoint y="4" as="offset" />
          </mxGeometry>
        </mxCell>
        <mxCell id="3hG3ktwHdd7RbcDjbh9i-90" value="&lt;font style=&quot;font-size: 18px&quot;&gt;&lt;b&gt;主业务&lt;/b&gt;&lt;/font&gt;" style="rounded=1;whiteSpace=wrap;html=1;comic=1;fillColor=#50C7C7;" parent="1" vertex="1">
          <mxGeometry x="920" y="2160" width="150" height="100" as="geometry" />
        </mxCell>
        <mxCell id="3hG3ktwHdd7RbcDjbh9i-91" value="&lt;font style=&quot;font-size: 18px&quot;&gt;&lt;b&gt;库存服务&lt;/b&gt;&lt;/font&gt;" style="rounded=1;whiteSpace=wrap;html=1;comic=1;fillColor=#50C7C7;" parent="1" vertex="1">
          <mxGeometry x="1340" y="2055" width="150" height="70" as="geometry" />
        </mxCell>
        <mxCell id="3hG3ktwHdd7RbcDjbh9i-92" value="&lt;b style=&quot;font-size: 18px&quot;&gt;订单服务&lt;/b&gt;" style="rounded=1;whiteSpace=wrap;html=1;comic=1;fillColor=#FF9933;" parent="1" vertex="1">
          <mxGeometry x="1340" y="2270" width="150" height="70" as="geometry" />
        </mxCell>
        <mxCell id="3hG3ktwHdd7RbcDjbh9i-93" value="" style="endArrow=classic;html=1;rounded=0;comic=1;fontSize=24;fontColor=#000000;sourcePerimeterSpacing=2;targetPerimeterSpacing=2;strokeColor=#333333;strokeWidth=2;jumpStyle=gap;exitX=1;exitY=0.143;exitDx=0;exitDy=0;exitPerimeter=0;entryX=0;entryY=0.5;entryDx=0;entryDy=0;" parent="1" source="3hG3ktwHdd7RbcDjbh9i-90" target="3hG3ktwHdd7RbcDjbh9i-91" edge="1">
          <mxGeometry relative="1" as="geometry">
            <mxPoint x="1425" y="2120" as="sourcePoint" />
            <mxPoint x="1510" y="2090" as="targetPoint" />
          </mxGeometry>
        </mxCell>
        <mxCell id="3hG3ktwHdd7RbcDjbh9i-94" value="确认提交" style="edgeLabel;resizable=0;html=1;align=center;verticalAlign=middle;rounded=1;comic=0;fontSize=18;fontColor=#000000;strokeColor=#007FFF;strokeWidth=2;fillColor=#FFCCCC;" parent="3hG3ktwHdd7RbcDjbh9i-93" connectable="0" vertex="1">
          <mxGeometry relative="1" as="geometry">
            <mxPoint y="-3" as="offset" />
          </mxGeometry>
        </mxCell>
        <mxCell id="3hG3ktwHdd7RbcDjbh9i-95" value="" style="endArrow=classic;html=1;rounded=0;comic=1;fontSize=24;fontColor=#000000;sourcePerimeterSpacing=2;targetPerimeterSpacing=2;strokeColor=#333333;strokeWidth=2;jumpStyle=gap;entryX=0;entryY=0.5;entryDx=0;entryDy=0;" parent="1" target="3hG3ktwHdd7RbcDjbh9i-92" edge="1">
          <mxGeometry relative="1" as="geometry">
            <mxPoint x="1070" y="2220" as="sourcePoint" />
            <mxPoint x="1467" y="2580" as="targetPoint" />
          </mxGeometry>
        </mxCell>
        <mxCell id="3hG3ktwHdd7RbcDjbh9i-96" value="确认提交" style="edgeLabel;resizable=0;html=1;align=center;verticalAlign=middle;rounded=1;comic=0;fontSize=18;fontColor=#000000;strokeColor=#007FFF;strokeWidth=2;fillColor=#FFCCCC;" parent="3hG3ktwHdd7RbcDjbh9i-95" connectable="0" vertex="1">
          <mxGeometry relative="1" as="geometry">
            <mxPoint y="-4" as="offset" />
          </mxGeometry>
        </mxCell>
        <mxCell id="3hG3ktwHdd7RbcDjbh9i-97" value="冻结库存 -2&amp;nbsp;" style="text;html=1;align=center;verticalAlign=middle;resizable=0;points=[];autosize=1;strokeColor=none;fillColor=none;fontSize=18;fontColor=#000000;" parent="1" vertex="1">
          <mxGeometry x="1373" y="2140" width="110" height="30" as="geometry" />
        </mxCell>
        <mxCell id="3hG3ktwHdd7RbcDjbh9i-98" value="更新订单状态为创建成功&amp;nbsp;" style="text;html=1;align=center;verticalAlign=middle;resizable=0;points=[];autosize=1;strokeColor=none;fillColor=none;fontSize=18;fontColor=#000000;" parent="1" vertex="1">
          <mxGeometry x="1323" y="2350" width="220" height="30" as="geometry" />
        </mxCell>
        <mxCell id="3hG3ktwHdd7RbcDjbh9i-99" value="&lt;font style=&quot;font-size: 24px&quot;&gt;Confrm 阶段&lt;/font&gt;" style="text;html=1;align=center;verticalAlign=middle;resizable=0;points=[];autosize=1;strokeColor=none;fillColor=none;fontSize=18;fontColor=#000000;" parent="1" vertex="1">
          <mxGeometry x="1133" y="2360" width="150" height="30" as="geometry" />
        </mxCell>
        <mxCell id="3hG3ktwHdd7RbcDjbh9i-100" value="" style="endArrow=classic;html=1;rounded=0;comic=1;fontSize=24;fontColor=#000000;sourcePerimeterSpacing=2;targetPerimeterSpacing=2;strokeColor=#333333;strokeWidth=2;jumpStyle=gap;exitX=0;exitY=0.75;exitDx=0;exitDy=0;dashed=1;entryX=1;entryY=0.75;entryDx=0;entryDy=0;" parent="1" source="3hG3ktwHdd7RbcDjbh9i-92" target="3hG3ktwHdd7RbcDjbh9i-90" edge="1">
          <mxGeometry relative="1" as="geometry">
            <mxPoint x="1094.9999999999998" y="2470" as="sourcePoint" />
            <mxPoint x="1090" y="2240" as="targetPoint" />
          </mxGeometry>
        </mxCell>
        <mxCell id="3hG3ktwHdd7RbcDjbh9i-101" value="执行成功" style="edgeLabel;resizable=0;html=1;align=center;verticalAlign=middle;rounded=1;comic=0;fontSize=18;fontColor=#000000;strokeColor=#007FFF;strokeWidth=2;fillColor=#FFCCCC;" parent="3hG3ktwHdd7RbcDjbh9i-100" connectable="0" vertex="1">
          <mxGeometry relative="1" as="geometry">
            <mxPoint y="3" as="offset" />
          </mxGeometry>
        </mxCell>
        <mxCell id="3hG3ktwHdd7RbcDjbh9i-102" value="" style="endArrow=classic;html=1;rounded=0;comic=1;fontSize=24;fontColor=#000000;sourcePerimeterSpacing=2;targetPerimeterSpacing=2;strokeColor=#333333;strokeWidth=2;jumpStyle=gap;dashed=1;exitX=0;exitY=0.75;exitDx=0;exitDy=0;" parent="1" source="3hG3ktwHdd7RbcDjbh9i-91" target="3hG3ktwHdd7RbcDjbh9i-90" edge="1">
          <mxGeometry relative="1" as="geometry">
            <mxPoint x="1480" y="2640" as="sourcePoint" />
            <mxPoint x="1200" y="2210" as="targetPoint" />
          </mxGeometry>
        </mxCell>
        <mxCell id="3hG3ktwHdd7RbcDjbh9i-103" value="执行成功" style="edgeLabel;resizable=0;html=1;align=center;verticalAlign=middle;rounded=1;comic=0;fontSize=18;fontColor=#000000;strokeColor=#007FFF;strokeWidth=2;fillColor=#FFCCCC;" parent="3hG3ktwHdd7RbcDjbh9i-102" connectable="0" vertex="1">
          <mxGeometry relative="1" as="geometry">
            <mxPoint y="5" as="offset" />
          </mxGeometry>
        </mxCell>
        <mxCell id="3hG3ktwHdd7RbcDjbh9i-104" value="" style="endArrow=none;html=1;rounded=0;comic=1;fontSize=24;fontColor=#000000;sourcePerimeterSpacing=2;targetPerimeterSpacing=2;strokeColor=#007FFF;strokeWidth=2;jumpStyle=gap;" parent="1" edge="1">
          <mxGeometry width="50" height="50" relative="1" as="geometry">
            <mxPoint y="2400" as="sourcePoint" />
            <mxPoint y="2400" as="targetPoint" />
            <Array as="points">
              <mxPoint y="2000" />
              <mxPoint x="720" y="2000" />
              <mxPoint x="720" y="2400" />
            </Array>
          </mxGeometry>
        </mxCell>
        <mxCell id="3hG3ktwHdd7RbcDjbh9i-105" value="" style="endArrow=none;html=1;rounded=0;comic=1;fontSize=24;fontColor=#000000;sourcePerimeterSpacing=2;targetPerimeterSpacing=2;strokeColor=#007FFF;strokeWidth=2;jumpStyle=gap;" parent="1" edge="1">
          <mxGeometry width="50" height="50" relative="1" as="geometry">
            <mxPoint x="880" y="2400" as="sourcePoint" />
            <mxPoint x="880" y="2400" as="targetPoint" />
            <Array as="points">
              <mxPoint x="880" y="2000" />
              <mxPoint x="1600" y="2000" />
              <mxPoint x="1600" y="2400" />
            </Array>
          </mxGeometry>
        </mxCell>
        <mxCell id="3hG3ktwHdd7RbcDjbh9i-106" value="&lt;font style=&quot;font-size: 18px&quot;&gt;&lt;b&gt;主业务&lt;/b&gt;&lt;/font&gt;" style="rounded=1;whiteSpace=wrap;html=1;comic=1;fillColor=#50C7C7;" parent="1" vertex="1">
          <mxGeometry x="921" y="2700" width="150" height="100" as="geometry" />
        </mxCell>
        <mxCell id="3hG3ktwHdd7RbcDjbh9i-107" value="&lt;font style=&quot;font-size: 18px&quot;&gt;&lt;b&gt;库存服务&lt;/b&gt;&lt;/font&gt;" style="rounded=1;whiteSpace=wrap;html=1;comic=1;fillColor=#50C7C7;" parent="1" vertex="1">
          <mxGeometry x="1341" y="2595" width="150" height="70" as="geometry" />
        </mxCell>
        <mxCell id="3hG3ktwHdd7RbcDjbh9i-108" value="&lt;b style=&quot;font-size: 18px&quot;&gt;订单服务&lt;/b&gt;" style="rounded=1;whiteSpace=wrap;html=1;comic=1;fillColor=#FF9933;" parent="1" vertex="1">
          <mxGeometry x="1341" y="2810" width="150" height="70" as="geometry" />
        </mxCell>
        <mxCell id="3hG3ktwHdd7RbcDjbh9i-109" value="" style="endArrow=classic;html=1;rounded=0;comic=1;fontSize=24;fontColor=#000000;sourcePerimeterSpacing=2;targetPerimeterSpacing=2;strokeColor=#333333;strokeWidth=2;jumpStyle=gap;exitX=1;exitY=0.143;exitDx=0;exitDy=0;exitPerimeter=0;entryX=0;entryY=0.5;entryDx=0;entryDy=0;" parent="1" source="3hG3ktwHdd7RbcDjbh9i-106" target="3hG3ktwHdd7RbcDjbh9i-107" edge="1">
          <mxGeometry relative="1" as="geometry">
            <mxPoint x="1426" y="2660" as="sourcePoint" />
            <mxPoint x="1511" y="2630" as="targetPoint" />
          </mxGeometry>
        </mxCell>
        <mxCell id="3hG3ktwHdd7RbcDjbh9i-110" value="取消提交" style="edgeLabel;resizable=0;html=1;align=center;verticalAlign=middle;rounded=1;comic=0;fontSize=18;fontColor=#000000;strokeColor=#007FFF;strokeWidth=2;fillColor=#FFCCCC;" parent="3hG3ktwHdd7RbcDjbh9i-109" connectable="0" vertex="1">
          <mxGeometry relative="1" as="geometry">
            <mxPoint y="-3" as="offset" />
          </mxGeometry>
        </mxCell>
        <mxCell id="3hG3ktwHdd7RbcDjbh9i-111" value="" style="endArrow=classic;html=1;rounded=0;comic=1;fontSize=24;fontColor=#000000;sourcePerimeterSpacing=2;targetPerimeterSpacing=2;strokeColor=#333333;strokeWidth=2;jumpStyle=gap;entryX=0;entryY=0.5;entryDx=0;entryDy=0;" parent="1" target="3hG3ktwHdd7RbcDjbh9i-108" edge="1">
          <mxGeometry relative="1" as="geometry">
            <mxPoint x="1071" y="2760" as="sourcePoint" />
            <mxPoint x="1468" y="3120" as="targetPoint" />
          </mxGeometry>
        </mxCell>
        <mxCell id="3hG3ktwHdd7RbcDjbh9i-112" value="取消提交" style="edgeLabel;resizable=0;html=1;align=center;verticalAlign=middle;rounded=1;comic=0;fontSize=18;fontColor=#000000;strokeColor=#007FFF;strokeWidth=2;fillColor=#FFCCCC;" parent="3hG3ktwHdd7RbcDjbh9i-111" connectable="0" vertex="1">
          <mxGeometry relative="1" as="geometry">
            <mxPoint x="1" y="-6" as="offset" />
          </mxGeometry>
        </mxCell>
        <mxCell id="3hG3ktwHdd7RbcDjbh9i-113" value="商品库存+2, 冻结库存 -2&amp;nbsp;" style="text;html=1;align=center;verticalAlign=middle;resizable=0;points=[];autosize=1;strokeColor=none;fillColor=none;fontSize=18;fontColor=#000000;" parent="1" vertex="1">
          <mxGeometry x="1319" y="2680" width="220" height="30" as="geometry" />
        </mxCell>
        <mxCell id="3hG3ktwHdd7RbcDjbh9i-114" value="更新订单状态为已取消&amp;nbsp;" style="text;html=1;align=center;verticalAlign=middle;resizable=0;points=[];autosize=1;strokeColor=none;fillColor=none;fontSize=18;fontColor=#000000;" parent="1" vertex="1">
          <mxGeometry x="1334" y="2890" width="200" height="30" as="geometry" />
        </mxCell>
        <mxCell id="3hG3ktwHdd7RbcDjbh9i-115" value="&lt;font style=&quot;font-size: 24px&quot;&gt;Cancel 阶段&lt;/font&gt;" style="text;html=1;align=center;verticalAlign=middle;resizable=0;points=[];autosize=1;strokeColor=none;fillColor=none;fontSize=18;fontColor=#000000;" parent="1" vertex="1">
          <mxGeometry x="1139" y="2900" width="140" height="30" as="geometry" />
        </mxCell>
        <mxCell id="3hG3ktwHdd7RbcDjbh9i-116" value="" style="endArrow=classic;html=1;rounded=0;comic=1;fontSize=24;fontColor=#000000;sourcePerimeterSpacing=2;targetPerimeterSpacing=2;strokeColor=#333333;strokeWidth=2;jumpStyle=gap;exitX=0;exitY=0.75;exitDx=0;exitDy=0;dashed=1;entryX=1;entryY=0.75;entryDx=0;entryDy=0;" parent="1" source="3hG3ktwHdd7RbcDjbh9i-108" target="3hG3ktwHdd7RbcDjbh9i-106" edge="1">
          <mxGeometry relative="1" as="geometry">
            <mxPoint x="1095.9999999999998" y="3010" as="sourcePoint" />
            <mxPoint x="1091" y="2780" as="targetPoint" />
          </mxGeometry>
        </mxCell>
        <mxCell id="3hG3ktwHdd7RbcDjbh9i-117" value="执行成功" style="edgeLabel;resizable=0;html=1;align=center;verticalAlign=middle;rounded=1;comic=0;fontSize=18;fontColor=#000000;strokeColor=#007FFF;strokeWidth=2;fillColor=#FFCCCC;" parent="3hG3ktwHdd7RbcDjbh9i-116" connectable="0" vertex="1">
          <mxGeometry relative="1" as="geometry">
            <mxPoint y="3" as="offset" />
          </mxGeometry>
        </mxCell>
        <mxCell id="3hG3ktwHdd7RbcDjbh9i-118" value="" style="endArrow=classic;html=1;rounded=0;comic=1;fontSize=24;fontColor=#000000;sourcePerimeterSpacing=2;targetPerimeterSpacing=2;strokeColor=#333333;strokeWidth=2;jumpStyle=gap;dashed=1;exitX=0;exitY=0.75;exitDx=0;exitDy=0;" parent="1" source="3hG3ktwHdd7RbcDjbh9i-107" target="3hG3ktwHdd7RbcDjbh9i-106" edge="1">
          <mxGeometry relative="1" as="geometry">
            <mxPoint x="1481" y="3180" as="sourcePoint" />
            <mxPoint x="1201" y="2750" as="targetPoint" />
          </mxGeometry>
        </mxCell>
        <mxCell id="3hG3ktwHdd7RbcDjbh9i-119" value="执行成功" style="edgeLabel;resizable=0;html=1;align=center;verticalAlign=middle;rounded=1;comic=0;fontSize=18;fontColor=#000000;strokeColor=#007FFF;strokeWidth=2;fillColor=#FFCCCC;" parent="3hG3ktwHdd7RbcDjbh9i-118" connectable="0" vertex="1">
          <mxGeometry relative="1" as="geometry">
            <mxPoint y="5" as="offset" />
          </mxGeometry>
        </mxCell>
        <mxCell id="3hG3ktwHdd7RbcDjbh9i-120" value="" style="endArrow=none;html=1;rounded=0;comic=1;fontSize=24;fontColor=#000000;sourcePerimeterSpacing=2;targetPerimeterSpacing=2;strokeColor=#007FFF;strokeWidth=2;jumpStyle=gap;" parent="1" edge="1">
          <mxGeometry width="50" height="50" relative="1" as="geometry">
            <mxPoint x="881" y="2940" as="sourcePoint" />
            <mxPoint x="881" y="2940" as="targetPoint" />
            <Array as="points">
              <mxPoint x="881" y="2540" />
              <mxPoint x="1601" y="2540" />
              <mxPoint x="1601" y="2940" />
            </Array>
          </mxGeometry>
        </mxCell>
        <mxCell id="3hG3ktwHdd7RbcDjbh9i-121" value="&lt;font style=&quot;font-size: 18px&quot;&gt;&lt;b&gt;主业务&lt;/b&gt;&lt;/font&gt;" style="rounded=1;whiteSpace=wrap;html=1;comic=1;fillColor=#50C7C7;" parent="1" vertex="1">
          <mxGeometry x="50" y="2700" width="150" height="100" as="geometry" />
        </mxCell>
        <mxCell id="3hG3ktwHdd7RbcDjbh9i-122" value="&lt;font style=&quot;font-size: 18px&quot;&gt;&lt;b&gt;库存服务&lt;/b&gt;&lt;/font&gt;" style="rounded=1;whiteSpace=wrap;html=1;comic=1;fillColor=#50C7C7;" parent="1" vertex="1">
          <mxGeometry x="470" y="2595" width="150" height="70" as="geometry" />
        </mxCell>
        <mxCell id="3hG3ktwHdd7RbcDjbh9i-123" value="&lt;b style=&quot;font-size: 18px&quot;&gt;订单服务&lt;/b&gt;" style="rounded=1;whiteSpace=wrap;html=1;comic=1;fillColor=#FF9933;" parent="1" vertex="1">
          <mxGeometry x="470" y="2810" width="150" height="70" as="geometry" />
        </mxCell>
        <mxCell id="3hG3ktwHdd7RbcDjbh9i-124" value="" style="endArrow=classic;html=1;rounded=0;comic=1;fontSize=24;fontColor=#000000;sourcePerimeterSpacing=2;targetPerimeterSpacing=2;strokeColor=#333333;strokeWidth=2;jumpStyle=gap;exitX=1;exitY=0.143;exitDx=0;exitDy=0;exitPerimeter=0;entryX=0;entryY=0.5;entryDx=0;entryDy=0;" parent="1" source="3hG3ktwHdd7RbcDjbh9i-121" target="3hG3ktwHdd7RbcDjbh9i-122" edge="1">
          <mxGeometry relative="1" as="geometry">
            <mxPoint x="555" y="2660" as="sourcePoint" />
            <mxPoint x="640" y="2630" as="targetPoint" />
          </mxGeometry>
        </mxCell>
        <mxCell id="3hG3ktwHdd7RbcDjbh9i-125" value="检查, 预留库存" style="edgeLabel;resizable=0;html=1;align=center;verticalAlign=middle;rounded=1;comic=0;fontSize=18;fontColor=#000000;strokeColor=#007FFF;strokeWidth=2;fillColor=#FFCCCC;" parent="3hG3ktwHdd7RbcDjbh9i-124" connectable="0" vertex="1">
          <mxGeometry relative="1" as="geometry">
            <mxPoint y="-5" as="offset" />
          </mxGeometry>
        </mxCell>
        <mxCell id="3hG3ktwHdd7RbcDjbh9i-126" value="" style="endArrow=classic;html=1;rounded=0;comic=1;fontSize=24;fontColor=#000000;sourcePerimeterSpacing=2;targetPerimeterSpacing=2;strokeColor=#333333;strokeWidth=2;jumpStyle=gap;entryX=0;entryY=0.5;entryDx=0;entryDy=0;" parent="1" target="3hG3ktwHdd7RbcDjbh9i-123" edge="1">
          <mxGeometry relative="1" as="geometry">
            <mxPoint x="200" y="2760" as="sourcePoint" />
            <mxPoint x="597" y="3120" as="targetPoint" />
          </mxGeometry>
        </mxCell>
        <mxCell id="3hG3ktwHdd7RbcDjbh9i-127" value="创建订单" style="edgeLabel;resizable=0;html=1;align=center;verticalAlign=middle;rounded=1;comic=0;fontSize=18;fontColor=#000000;strokeColor=#007FFF;strokeWidth=2;fillColor=#FFCCCC;" parent="3hG3ktwHdd7RbcDjbh9i-126" connectable="0" vertex="1">
          <mxGeometry relative="1" as="geometry">
            <mxPoint y="-4" as="offset" />
          </mxGeometry>
        </mxCell>
        <mxCell id="3hG3ktwHdd7RbcDjbh9i-128" value="更新库存为98, 并设置冻结&lt;br&gt;库存 +2&amp;nbsp;" style="text;html=1;align=center;verticalAlign=middle;resizable=0;points=[];autosize=1;strokeColor=none;fillColor=none;fontSize=18;fontColor=#000000;" parent="1" vertex="1">
          <mxGeometry x="430" y="2680" width="230" height="50" as="geometry" />
        </mxCell>
        <mxCell id="3hG3ktwHdd7RbcDjbh9i-129" value="创建订单, 订单状态为待确认" style="text;html=1;align=center;verticalAlign=middle;resizable=0;points=[];autosize=1;strokeColor=none;fillColor=none;fontSize=18;fontColor=#000000;" parent="1" vertex="1">
          <mxGeometry x="430" y="2890" width="240" height="30" as="geometry" />
        </mxCell>
        <mxCell id="3hG3ktwHdd7RbcDjbh9i-130" value="&lt;font style=&quot;font-size: 24px&quot;&gt;Try 阶段&lt;/font&gt;" style="text;html=1;align=center;verticalAlign=middle;resizable=0;points=[];autosize=1;strokeColor=none;fillColor=none;fontSize=18;fontColor=#000000;" parent="1" vertex="1">
          <mxGeometry x="280" y="2900" width="100" height="30" as="geometry" />
        </mxCell>
        <mxCell id="3hG3ktwHdd7RbcDjbh9i-131" value="" style="endArrow=classic;html=1;rounded=0;comic=1;fontSize=24;fontColor=#000000;sourcePerimeterSpacing=2;targetPerimeterSpacing=2;strokeColor=#333333;strokeWidth=2;jumpStyle=gap;exitX=0;exitY=0.75;exitDx=0;exitDy=0;dashed=1;entryX=1;entryY=0.75;entryDx=0;entryDy=0;" parent="1" source="3hG3ktwHdd7RbcDjbh9i-123" target="3hG3ktwHdd7RbcDjbh9i-121" edge="1">
          <mxGeometry relative="1" as="geometry">
            <mxPoint x="224.99999999999977" y="3010" as="sourcePoint" />
            <mxPoint x="220" y="2780" as="targetPoint" />
          </mxGeometry>
        </mxCell>
        <mxCell id="3hG3ktwHdd7RbcDjbh9i-132" value="执行成功" style="edgeLabel;resizable=0;html=1;align=center;verticalAlign=middle;rounded=1;comic=0;fontSize=18;fontColor=#000000;strokeColor=#007FFF;strokeWidth=2;fillColor=#FFCCCC;" parent="3hG3ktwHdd7RbcDjbh9i-131" connectable="0" vertex="1">
          <mxGeometry relative="1" as="geometry">
            <mxPoint y="4" as="offset" />
          </mxGeometry>
        </mxCell>
        <mxCell id="3hG3ktwHdd7RbcDjbh9i-133" value="" style="endArrow=classic;html=1;rounded=0;comic=1;fontSize=24;fontColor=#000000;sourcePerimeterSpacing=2;targetPerimeterSpacing=2;strokeColor=#333333;strokeWidth=2;jumpStyle=gap;dashed=1;exitX=0;exitY=0.75;exitDx=0;exitDy=0;" parent="1" source="3hG3ktwHdd7RbcDjbh9i-122" target="3hG3ktwHdd7RbcDjbh9i-121" edge="1">
          <mxGeometry relative="1" as="geometry">
            <mxPoint x="610" y="3180" as="sourcePoint" />
            <mxPoint x="330" y="2750" as="targetPoint" />
          </mxGeometry>
        </mxCell>
        <mxCell id="3hG3ktwHdd7RbcDjbh9i-134" value="执行成功" style="edgeLabel;resizable=0;html=1;align=center;verticalAlign=middle;rounded=1;comic=0;fontSize=18;fontColor=#000000;strokeColor=#007FFF;strokeWidth=2;fillColor=#FFCCCC;" parent="3hG3ktwHdd7RbcDjbh9i-133" connectable="0" vertex="1">
          <mxGeometry relative="1" as="geometry">
            <mxPoint y="4" as="offset" />
          </mxGeometry>
        </mxCell>
        <mxCell id="3hG3ktwHdd7RbcDjbh9i-135" value="" style="endArrow=none;html=1;rounded=0;comic=1;fontSize=24;fontColor=#000000;sourcePerimeterSpacing=2;targetPerimeterSpacing=2;strokeColor=#007FFF;strokeWidth=2;jumpStyle=gap;" parent="1" edge="1">
          <mxGeometry width="50" height="50" relative="1" as="geometry">
            <mxPoint y="2940" as="sourcePoint" />
            <mxPoint y="2940" as="targetPoint" />
            <Array as="points">
              <mxPoint y="2540" />
              <mxPoint x="720" y="2540" />
              <mxPoint x="720" y="2940" />
            </Array>
          </mxGeometry>
        </mxCell>
        <mxCell id="3hG3ktwHdd7RbcDjbh9i-136" value="&lt;b&gt;Try --&amp;gt; Conform&lt;/b&gt;" style="text;html=1;align=center;verticalAlign=middle;resizable=0;points=[];autosize=1;strokeColor=none;fillColor=none;fontSize=24;fontColor=#000000;" parent="1" vertex="1">
          <mxGeometry x="677" y="2450" width="190" height="30" as="geometry" />
        </mxCell>
        <mxCell id="3hG3ktwHdd7RbcDjbh9i-137" value="" style="endArrow=classic;html=1;rounded=0;comic=1;fontSize=24;fontColor=#000000;sourcePerimeterSpacing=2;targetPerimeterSpacing=2;strokeColor=#007FFF;strokeWidth=2;jumpStyle=gap;" parent="1" edge="1">
          <mxGeometry width="50" height="50" relative="1" as="geometry">
            <mxPoint x="720" y="2200" as="sourcePoint" />
            <mxPoint x="880" y="2200" as="targetPoint" />
          </mxGeometry>
        </mxCell>
        <mxCell id="3hG3ktwHdd7RbcDjbh9i-138" value="" style="endArrow=classic;html=1;rounded=0;comic=1;fontSize=24;fontColor=#000000;sourcePerimeterSpacing=2;targetPerimeterSpacing=2;strokeColor=#007FFF;strokeWidth=2;jumpStyle=gap;" parent="1" edge="1">
          <mxGeometry width="50" height="50" relative="1" as="geometry">
            <mxPoint x="720" y="2730" as="sourcePoint" />
            <mxPoint x="880" y="2730" as="targetPoint" />
          </mxGeometry>
        </mxCell>
        <mxCell id="3hG3ktwHdd7RbcDjbh9i-139" value="&lt;b&gt;Try --&amp;gt; Cancel&lt;/b&gt;" style="text;html=1;align=center;verticalAlign=middle;resizable=0;points=[];autosize=1;strokeColor=none;fillColor=none;fontSize=24;fontColor=#000000;" parent="1" vertex="1">
          <mxGeometry x="687" y="2980" width="170" height="30" as="geometry" />
        </mxCell>
        <mxCell id="3hG3ktwHdd7RbcDjbh9i-140" value="&lt;font style=&quot;font-size: 18px&quot;&gt;&lt;b&gt;事务主动方&lt;/b&gt;&lt;/font&gt;" style="rounded=1;whiteSpace=wrap;html=1;comic=1;fillColor=#50C7C7;" parent="1" vertex="1">
          <mxGeometry x="50" y="3273" width="150" height="110" as="geometry" />
        </mxCell>
        <mxCell id="3hG3ktwHdd7RbcDjbh9i-141" value="" style="shape=datastore;whiteSpace=wrap;html=1;rounded=1;comic=0;fontSize=20;strokeColor=#007FFF;strokeWidth=2;fillColor=#d5e8d4;" parent="1" vertex="1">
          <mxGeometry x="420" y="3268" width="80" height="120" as="geometry" />
        </mxCell>
        <mxCell id="3hG3ktwHdd7RbcDjbh9i-142" value="事务主动方 DB" style="text;html=1;align=center;verticalAlign=middle;resizable=0;points=[];autosize=1;strokeColor=none;fillColor=none;fontSize=24;fontColor=#000000;" parent="1" vertex="1">
          <mxGeometry x="370" y="3398" width="180" height="30" as="geometry" />
        </mxCell>
        <mxCell id="3hG3ktwHdd7RbcDjbh9i-143" value="" style="endArrow=classic;html=1;rounded=0;comic=1;fontSize=24;fontColor=#000000;sourcePerimeterSpacing=2;targetPerimeterSpacing=2;strokeColor=#333333;strokeWidth=2;jumpStyle=gap;exitX=1;exitY=0.25;exitDx=0;exitDy=0;entryX=0;entryY=0.3;entryDx=0;entryDy=0;" parent="1" source="3hG3ktwHdd7RbcDjbh9i-140" target="3hG3ktwHdd7RbcDjbh9i-141" edge="1">
          <mxGeometry relative="1" as="geometry">
            <mxPoint x="240" y="3217.2999999999997" as="sourcePoint" />
            <mxPoint x="510" y="3133" as="targetPoint" />
          </mxGeometry>
        </mxCell>
        <mxCell id="3hG3ktwHdd7RbcDjbh9i-144" value="&amp;nbsp;1. 写业务表数据&amp;nbsp;" style="edgeLabel;resizable=0;html=1;align=center;verticalAlign=middle;rounded=1;comic=0;fontSize=18;fontColor=#000000;strokeColor=#007FFF;strokeWidth=2;fillColor=#FFCCCC;" parent="3hG3ktwHdd7RbcDjbh9i-143" connectable="0" vertex="1">
          <mxGeometry relative="1" as="geometry">
            <mxPoint y="-5" as="offset" />
          </mxGeometry>
        </mxCell>
        <mxCell id="3hG3ktwHdd7RbcDjbh9i-145" value="" style="endArrow=classic;html=1;rounded=0;comic=1;fontSize=24;fontColor=#000000;sourcePerimeterSpacing=2;targetPerimeterSpacing=2;strokeColor=#333333;strokeWidth=2;jumpStyle=gap;exitX=1;exitY=0.5;exitDx=0;exitDy=0;entryX=0;entryY=0.5;entryDx=0;entryDy=0;" parent="1" source="3hG3ktwHdd7RbcDjbh9i-140" target="3hG3ktwHdd7RbcDjbh9i-141" edge="1">
          <mxGeometry relative="1" as="geometry">
            <mxPoint x="210" y="3554.5" as="sourcePoint" />
            <mxPoint x="424" y="3552.9999999999995" as="targetPoint" />
          </mxGeometry>
        </mxCell>
        <mxCell id="3hG3ktwHdd7RbcDjbh9i-146" value="&amp;nbsp;2. 写消息表数据&amp;nbsp;" style="edgeLabel;resizable=0;html=1;align=center;verticalAlign=middle;rounded=1;comic=0;fontSize=18;fontColor=#000000;strokeColor=#007FFF;strokeWidth=2;fillColor=#FFCCCC;" parent="3hG3ktwHdd7RbcDjbh9i-145" connectable="0" vertex="1">
          <mxGeometry relative="1" as="geometry">
            <mxPoint y="-5" as="offset" />
          </mxGeometry>
        </mxCell>
        <mxCell id="3hG3ktwHdd7RbcDjbh9i-147" value="" style="endArrow=classic;html=1;rounded=0;comic=1;fontSize=24;fontColor=#000000;sourcePerimeterSpacing=2;targetPerimeterSpacing=2;strokeColor=#333333;strokeWidth=2;jumpStyle=gap;exitX=1;exitY=0.75;exitDx=0;exitDy=0;entryX=0;entryY=0.7;entryDx=0;entryDy=0;" parent="1" source="3hG3ktwHdd7RbcDjbh9i-140" target="3hG3ktwHdd7RbcDjbh9i-141" edge="1">
          <mxGeometry relative="1" as="geometry">
            <mxPoint x="200" y="3514.5" as="sourcePoint" />
            <mxPoint x="414" y="3512.9999999999995" as="targetPoint" />
          </mxGeometry>
        </mxCell>
        <mxCell id="3hG3ktwHdd7RbcDjbh9i-148" value="&amp;nbsp;3. 更新消息表状态&amp;nbsp;" style="edgeLabel;resizable=0;html=1;align=center;verticalAlign=middle;rounded=1;comic=0;fontSize=18;fontColor=#000000;strokeColor=#007FFF;strokeWidth=2;fillColor=#FFCCCC;" parent="3hG3ktwHdd7RbcDjbh9i-147" connectable="0" vertex="1">
          <mxGeometry relative="1" as="geometry">
            <mxPoint y="-5" as="offset" />
          </mxGeometry>
        </mxCell>
        <mxCell id="3hG3ktwHdd7RbcDjbh9i-149" value="" style="endArrow=none;html=1;rounded=0;comic=1;fontSize=24;fontColor=#000000;sourcePerimeterSpacing=2;targetPerimeterSpacing=2;strokeColor=#007FFF;strokeWidth=2;jumpStyle=gap;" parent="1" edge="1">
          <mxGeometry width="50" height="50" relative="1" as="geometry">
            <mxPoint x="40" y="3463" as="sourcePoint" />
            <mxPoint x="40" y="3463" as="targetPoint" />
            <Array as="points">
              <mxPoint x="40" y="3183" />
              <mxPoint x="560" y="3183" />
              <mxPoint x="560" y="3463" />
            </Array>
          </mxGeometry>
        </mxCell>
        <mxCell id="3hG3ktwHdd7RbcDjbh9i-150" value="本地事务" style="text;html=1;align=center;verticalAlign=middle;resizable=0;points=[];autosize=1;strokeColor=none;fillColor=none;fontSize=24;fontColor=#000000;" parent="1" vertex="1">
          <mxGeometry x="60" y="3213" width="110" height="30" as="geometry" />
        </mxCell>
        <mxCell id="3hG3ktwHdd7RbcDjbh9i-151" value="&lt;font style=&quot;font-size: 18px&quot;&gt;&lt;b&gt;事务被动方&lt;/b&gt;&lt;/font&gt;" style="rounded=1;whiteSpace=wrap;html=1;comic=1;fillColor=#FF9933;" parent="1" vertex="1">
          <mxGeometry x="850" y="3273" width="150" height="110" as="geometry" />
        </mxCell>
        <mxCell id="3hG3ktwHdd7RbcDjbh9i-152" value="" style="shape=datastore;whiteSpace=wrap;html=1;rounded=1;comic=0;fontSize=20;strokeColor=#007FFF;strokeWidth=2;fillColor=#d5e8d4;" parent="1" vertex="1">
          <mxGeometry x="1220" y="3268" width="80" height="120" as="geometry" />
        </mxCell>
        <mxCell id="3hG3ktwHdd7RbcDjbh9i-153" value="事务被动方 DB" style="text;html=1;align=center;verticalAlign=middle;resizable=0;points=[];autosize=1;strokeColor=none;fillColor=none;fontSize=24;fontColor=#000000;" parent="1" vertex="1">
          <mxGeometry x="1170" y="3398" width="180" height="30" as="geometry" />
        </mxCell>
        <mxCell id="3hG3ktwHdd7RbcDjbh9i-154" value="" style="endArrow=classic;html=1;rounded=0;comic=1;fontSize=24;fontColor=#000000;sourcePerimeterSpacing=2;targetPerimeterSpacing=2;strokeColor=#333333;strokeWidth=2;jumpStyle=gap;exitX=1;exitY=0.5;exitDx=0;exitDy=0;entryX=0;entryY=0.5;entryDx=0;entryDy=0;" parent="1" source="3hG3ktwHdd7RbcDjbh9i-151" target="3hG3ktwHdd7RbcDjbh9i-152" edge="1">
          <mxGeometry relative="1" as="geometry">
            <mxPoint x="1040" y="3217.2999999999997" as="sourcePoint" />
            <mxPoint x="1310" y="3133" as="targetPoint" />
          </mxGeometry>
        </mxCell>
        <mxCell id="3hG3ktwHdd7RbcDjbh9i-155" value="&amp;nbsp;5. 写业务表数据&amp;nbsp;" style="edgeLabel;resizable=0;html=1;align=center;verticalAlign=middle;rounded=1;comic=0;fontSize=18;fontColor=#000000;strokeColor=#007FFF;strokeWidth=2;fillColor=#FFCCCC;" parent="3hG3ktwHdd7RbcDjbh9i-154" connectable="0" vertex="1">
          <mxGeometry relative="1" as="geometry">
            <mxPoint y="-5" as="offset" />
          </mxGeometry>
        </mxCell>
        <mxCell id="3hG3ktwHdd7RbcDjbh9i-156" value="" style="endArrow=none;html=1;rounded=0;comic=1;fontSize=24;fontColor=#000000;sourcePerimeterSpacing=2;targetPerimeterSpacing=2;strokeColor=#007FFF;strokeWidth=2;jumpStyle=gap;" parent="1" edge="1">
          <mxGeometry width="50" height="50" relative="1" as="geometry">
            <mxPoint x="840" y="3463" as="sourcePoint" />
            <mxPoint x="840" y="3463" as="targetPoint" />
            <Array as="points">
              <mxPoint x="840" y="3183" />
              <mxPoint x="1360" y="3183" />
              <mxPoint x="1360" y="3463" />
            </Array>
          </mxGeometry>
        </mxCell>
        <mxCell id="3hG3ktwHdd7RbcDjbh9i-157" value="本地事务" style="text;html=1;align=center;verticalAlign=middle;resizable=0;points=[];autosize=1;strokeColor=none;fillColor=none;fontSize=24;fontColor=#000000;" parent="1" vertex="1">
          <mxGeometry x="860" y="3213" width="110" height="30" as="geometry" />
        </mxCell>
        <mxCell id="3hG3ktwHdd7RbcDjbh9i-158" value="&lt;font style=&quot;font-size: 18px&quot;&gt;&lt;b&gt;消息中间件&lt;/b&gt;&lt;/font&gt;" style="rounded=0;whiteSpace=wrap;html=1;comic=1;fillColor=#007FFF;" parent="1" vertex="1">
          <mxGeometry x="420" y="3563" width="197" height="80" as="geometry" />
        </mxCell>
        <mxCell id="3hG3ktwHdd7RbcDjbh9i-159" value="" style="endArrow=classic;html=1;rounded=0;comic=1;fontSize=24;fontColor=#000000;sourcePerimeterSpacing=2;targetPerimeterSpacing=2;strokeColor=#000000;strokeWidth=2;jumpStyle=gap;exitX=0;exitY=0.25;exitDx=0;exitDy=0;entryX=0.75;entryY=1;entryDx=0;entryDy=0;" parent="1" source="3hG3ktwHdd7RbcDjbh9i-158" target="3hG3ktwHdd7RbcDjbh9i-140" edge="1">
          <mxGeometry relative="1" as="geometry">
            <mxPoint x="650" y="3273" as="sourcePoint" />
            <mxPoint x="750" y="3273" as="targetPoint" />
            <Array as="points">
              <mxPoint x="160" y="3583" />
            </Array>
          </mxGeometry>
        </mxCell>
        <mxCell id="3hG3ktwHdd7RbcDjbh9i-160" value="&amp;nbsp;7. 读消息&amp;nbsp;" style="edgeLabel;resizable=0;html=1;align=center;verticalAlign=middle;rounded=0;comic=0;fontSize=24;fontColor=#000000;strokeColor=#007FFF;strokeWidth=2;fillColor=#007FFF;" parent="3hG3ktwHdd7RbcDjbh9i-159" connectable="0" vertex="1">
          <mxGeometry relative="1" as="geometry">
            <mxPoint x="73" as="offset" />
          </mxGeometry>
        </mxCell>
        <mxCell id="3hG3ktwHdd7RbcDjbh9i-161" value="" style="endArrow=classic;html=1;rounded=0;comic=1;fontSize=24;fontColor=#000000;sourcePerimeterSpacing=2;targetPerimeterSpacing=2;strokeColor=#000000;strokeWidth=2;jumpStyle=gap;exitX=0.25;exitY=1;exitDx=0;exitDy=0;entryX=0;entryY=0.75;entryDx=0;entryDy=0;" parent="1" source="3hG3ktwHdd7RbcDjbh9i-140" target="3hG3ktwHdd7RbcDjbh9i-158" edge="1">
          <mxGeometry relative="1" as="geometry">
            <mxPoint x="493" y="3893" as="sourcePoint" />
            <mxPoint x="172.5" y="3693" as="targetPoint" />
            <Array as="points">
              <mxPoint x="88" y="3623" />
            </Array>
          </mxGeometry>
        </mxCell>
        <mxCell id="3hG3ktwHdd7RbcDjbh9i-162" value="&amp;nbsp;3. 发送消息&amp;nbsp;" style="edgeLabel;resizable=0;html=1;align=center;verticalAlign=middle;rounded=0;comic=0;fontSize=24;fontColor=#000000;strokeColor=#007FFF;strokeWidth=2;fillColor=#007FFF;" parent="3hG3ktwHdd7RbcDjbh9i-161" connectable="0" vertex="1">
          <mxGeometry relative="1" as="geometry">
            <mxPoint x="124" as="offset" />
          </mxGeometry>
        </mxCell>
        <mxCell id="3hG3ktwHdd7RbcDjbh9i-163" value="" style="endArrow=classic;html=1;rounded=0;comic=1;fontSize=24;fontColor=#000000;sourcePerimeterSpacing=2;targetPerimeterSpacing=2;strokeColor=#000000;strokeWidth=2;jumpStyle=gap;exitX=1;exitY=0.75;exitDx=0;exitDy=0;entryX=0.75;entryY=1;entryDx=0;entryDy=0;" parent="1" source="3hG3ktwHdd7RbcDjbh9i-158" target="3hG3ktwHdd7RbcDjbh9i-151" edge="1">
          <mxGeometry relative="1" as="geometry">
            <mxPoint x="97.5" y="3393" as="sourcePoint" />
            <mxPoint x="493" y="3633" as="targetPoint" />
            <Array as="points">
              <mxPoint x="960" y="3623" />
            </Array>
          </mxGeometry>
        </mxCell>
        <mxCell id="3hG3ktwHdd7RbcDjbh9i-164" value="&amp;nbsp;4. 读消息&amp;nbsp;" style="edgeLabel;resizable=0;html=1;align=center;verticalAlign=middle;rounded=0;comic=0;fontSize=24;fontColor=#000000;strokeColor=#007FFF;strokeWidth=2;fillColor=#007FFF;" parent="3hG3ktwHdd7RbcDjbh9i-163" connectable="0" vertex="1">
          <mxGeometry relative="1" as="geometry">
            <mxPoint x="-119" as="offset" />
          </mxGeometry>
        </mxCell>
        <mxCell id="3hG3ktwHdd7RbcDjbh9i-165" value="" style="endArrow=classic;html=1;rounded=0;comic=1;fontSize=24;fontColor=#000000;sourcePerimeterSpacing=2;targetPerimeterSpacing=2;strokeColor=#000000;strokeWidth=2;jumpStyle=gap;exitX=1;exitY=0.25;exitDx=0;exitDy=0;entryX=0.367;entryY=1.045;entryDx=0;entryDy=0;entryPerimeter=0;" parent="1" source="3hG3ktwHdd7RbcDjbh9i-158" target="3hG3ktwHdd7RbcDjbh9i-151" edge="1">
          <mxGeometry relative="1" as="geometry">
            <mxPoint x="627" y="3633" as="sourcePoint" />
            <mxPoint x="907.5" y="3398" as="targetPoint" />
            <Array as="points">
              <mxPoint x="840" y="3583" />
              <mxPoint x="900" y="3583" />
            </Array>
          </mxGeometry>
        </mxCell>
        <mxCell id="3hG3ktwHdd7RbcDjbh9i-166" value="&amp;nbsp;6. 返回处理结果&amp;nbsp;" style="edgeLabel;resizable=0;html=1;align=center;verticalAlign=middle;rounded=0;comic=0;fontSize=24;fontColor=#000000;strokeColor=#007FFF;strokeWidth=2;fillColor=#007FFF;" parent="3hG3ktwHdd7RbcDjbh9i-165" connectable="0" vertex="1">
          <mxGeometry relative="1" as="geometry">
            <mxPoint x="-75" as="offset" />
          </mxGeometry>
        </mxCell>
        <mxCell id="3hG3ktwHdd7RbcDjbh9i-167" value="&lt;b&gt;本地消息表&lt;/b&gt;" style="text;html=1;align=center;verticalAlign=middle;resizable=0;points=[];autosize=1;strokeColor=none;fillColor=none;fontSize=24;fontColor=#000000;" parent="1" vertex="1">
          <mxGeometry x="670" y="3693" width="140" height="30" as="geometry" />
        </mxCell>
        <mxCell id="3hG3ktwHdd7RbcDjbh9i-168" value="&lt;font style=&quot;font-size: 18px&quot;&gt;&lt;b&gt;事务主动方&lt;/b&gt;&lt;/font&gt;" style="rounded=1;whiteSpace=wrap;html=1;comic=1;fillColor=#50C7C7;" parent="1" vertex="1">
          <mxGeometry x="45" y="3960" width="150" height="110" as="geometry" />
        </mxCell>
        <mxCell id="3hG3ktwHdd7RbcDjbh9i-169" value="" style="shape=datastore;whiteSpace=wrap;html=1;rounded=1;comic=0;fontSize=20;strokeColor=#007FFF;strokeWidth=2;fillColor=#d5e8d4;" parent="1" vertex="1">
          <mxGeometry x="415" y="3955" width="80" height="120" as="geometry" />
        </mxCell>
        <mxCell id="3hG3ktwHdd7RbcDjbh9i-170" value="事务主动方 DB" style="text;html=1;align=center;verticalAlign=middle;resizable=0;points=[];autosize=1;strokeColor=none;fillColor=none;fontSize=24;fontColor=#000000;" parent="1" vertex="1">
          <mxGeometry x="365" y="4085" width="180" height="30" as="geometry" />
        </mxCell>
        <mxCell id="3hG3ktwHdd7RbcDjbh9i-171" value="" style="endArrow=classic;html=1;rounded=0;comic=1;fontSize=24;fontColor=#000000;sourcePerimeterSpacing=2;targetPerimeterSpacing=2;strokeColor=#333333;strokeWidth=2;jumpStyle=gap;exitX=1;exitY=0.5;exitDx=0;exitDy=0;entryX=0;entryY=0.5;entryDx=0;entryDy=0;" parent="1" source="3hG3ktwHdd7RbcDjbh9i-168" target="3hG3ktwHdd7RbcDjbh9i-169" edge="1">
          <mxGeometry relative="1" as="geometry">
            <mxPoint x="235" y="3904.2999999999997" as="sourcePoint" />
            <mxPoint x="505" y="3820" as="targetPoint" />
          </mxGeometry>
        </mxCell>
        <mxCell id="3hG3ktwHdd7RbcDjbh9i-172" value="&amp;nbsp;1. 写业务表数据&amp;nbsp;" style="edgeLabel;resizable=0;html=1;align=center;verticalAlign=middle;rounded=1;comic=0;fontSize=18;fontColor=#000000;strokeColor=#007FFF;strokeWidth=2;fillColor=#FFCCCC;" parent="3hG3ktwHdd7RbcDjbh9i-171" connectable="0" vertex="1">
          <mxGeometry relative="1" as="geometry">
            <mxPoint x="-5" as="offset" />
          </mxGeometry>
        </mxCell>
        <mxCell id="3hG3ktwHdd7RbcDjbh9i-173" value="" style="endArrow=none;html=1;rounded=0;comic=1;fontSize=24;fontColor=#000000;sourcePerimeterSpacing=2;targetPerimeterSpacing=2;strokeColor=#007FFF;strokeWidth=2;jumpStyle=gap;" parent="1" edge="1">
          <mxGeometry width="50" height="50" relative="1" as="geometry">
            <mxPoint x="35" y="4150" as="sourcePoint" />
            <mxPoint x="35" y="4150" as="targetPoint" />
            <Array as="points">
              <mxPoint x="35" y="3870" />
              <mxPoint x="555" y="3870" />
              <mxPoint x="555" y="4150" />
            </Array>
          </mxGeometry>
        </mxCell>
        <mxCell id="3hG3ktwHdd7RbcDjbh9i-174" value="本地事务" style="text;html=1;align=center;verticalAlign=middle;resizable=0;points=[];autosize=1;strokeColor=none;fillColor=none;fontSize=24;fontColor=#000000;" parent="1" vertex="1">
          <mxGeometry x="55" y="3900" width="110" height="30" as="geometry" />
        </mxCell>
        <mxCell id="3hG3ktwHdd7RbcDjbh9i-175" value="&lt;font style=&quot;font-size: 18px&quot;&gt;&lt;b&gt;事务被动方&lt;/b&gt;&lt;/font&gt;" style="rounded=1;whiteSpace=wrap;html=1;comic=1;fillColor=#FF9933;" parent="1" vertex="1">
          <mxGeometry x="845" y="3960" width="150" height="110" as="geometry" />
        </mxCell>
        <mxCell id="3hG3ktwHdd7RbcDjbh9i-176" value="" style="shape=datastore;whiteSpace=wrap;html=1;rounded=1;comic=0;fontSize=20;strokeColor=#007FFF;strokeWidth=2;fillColor=#d5e8d4;" parent="1" vertex="1">
          <mxGeometry x="1215" y="3955" width="80" height="120" as="geometry" />
        </mxCell>
        <mxCell id="3hG3ktwHdd7RbcDjbh9i-177" value="事务被动方 DB" style="text;html=1;align=center;verticalAlign=middle;resizable=0;points=[];autosize=1;strokeColor=none;fillColor=none;fontSize=24;fontColor=#000000;" parent="1" vertex="1">
          <mxGeometry x="1165" y="4085" width="180" height="30" as="geometry" />
        </mxCell>
        <mxCell id="3hG3ktwHdd7RbcDjbh9i-178" value="" style="endArrow=classic;html=1;rounded=0;comic=1;fontSize=24;fontColor=#000000;sourcePerimeterSpacing=2;targetPerimeterSpacing=2;strokeColor=#333333;strokeWidth=2;jumpStyle=gap;exitX=1;exitY=0.5;exitDx=0;exitDy=0;entryX=0;entryY=0.5;entryDx=0;entryDy=0;" parent="1" source="3hG3ktwHdd7RbcDjbh9i-175" target="3hG3ktwHdd7RbcDjbh9i-176" edge="1">
          <mxGeometry relative="1" as="geometry">
            <mxPoint x="1035" y="3904.2999999999997" as="sourcePoint" />
            <mxPoint x="1305" y="3820" as="targetPoint" />
          </mxGeometry>
        </mxCell>
        <mxCell id="3hG3ktwHdd7RbcDjbh9i-179" value="&amp;nbsp;4. 写业务表数据&amp;nbsp;" style="edgeLabel;resizable=0;html=1;align=center;verticalAlign=middle;rounded=1;comic=0;fontSize=18;fontColor=#000000;strokeColor=#007FFF;strokeWidth=2;fillColor=#FFCCCC;" parent="3hG3ktwHdd7RbcDjbh9i-178" connectable="0" vertex="1">
          <mxGeometry relative="1" as="geometry">
            <mxPoint y="-5" as="offset" />
          </mxGeometry>
        </mxCell>
        <mxCell id="3hG3ktwHdd7RbcDjbh9i-180" value="" style="endArrow=none;html=1;rounded=0;comic=1;fontSize=24;fontColor=#000000;sourcePerimeterSpacing=2;targetPerimeterSpacing=2;strokeColor=#007FFF;strokeWidth=2;jumpStyle=gap;" parent="1" edge="1">
          <mxGeometry width="50" height="50" relative="1" as="geometry">
            <mxPoint x="835" y="4150" as="sourcePoint" />
            <mxPoint x="835" y="4150" as="targetPoint" />
            <Array as="points">
              <mxPoint x="835" y="3870" />
              <mxPoint x="1355" y="3870" />
              <mxPoint x="1355" y="4150" />
            </Array>
          </mxGeometry>
        </mxCell>
        <mxCell id="3hG3ktwHdd7RbcDjbh9i-181" value="本地事务" style="text;html=1;align=center;verticalAlign=middle;resizable=0;points=[];autosize=1;strokeColor=none;fillColor=none;fontSize=24;fontColor=#000000;" parent="1" vertex="1">
          <mxGeometry x="855" y="3900" width="110" height="30" as="geometry" />
        </mxCell>
        <mxCell id="3hG3ktwHdd7RbcDjbh9i-182" value="&lt;font style=&quot;font-size: 18px&quot;&gt;&lt;b&gt;MQ Server&lt;/b&gt;&lt;/font&gt;" style="rounded=0;whiteSpace=wrap;html=1;comic=1;fillColor=#007FFF;" parent="1" vertex="1">
          <mxGeometry x="415" y="4250" width="197" height="80" as="geometry" />
        </mxCell>
        <mxCell id="3hG3ktwHdd7RbcDjbh9i-183" value="" style="endArrow=classic;html=1;rounded=0;comic=1;fontSize=24;fontColor=#000000;sourcePerimeterSpacing=2;targetPerimeterSpacing=2;strokeColor=#000000;strokeWidth=2;jumpStyle=gap;exitX=0;exitY=0.25;exitDx=0;exitDy=0;entryX=0.75;entryY=1;entryDx=0;entryDy=0;" parent="1" source="3hG3ktwHdd7RbcDjbh9i-182" target="3hG3ktwHdd7RbcDjbh9i-168" edge="1">
          <mxGeometry relative="1" as="geometry">
            <mxPoint x="645" y="3960" as="sourcePoint" />
            <mxPoint x="745" y="3960" as="targetPoint" />
            <Array as="points">
              <mxPoint x="155" y="4270" />
            </Array>
          </mxGeometry>
        </mxCell>
        <mxCell id="3hG3ktwHdd7RbcDjbh9i-184" value="&amp;nbsp;6. 读消息&amp;nbsp;" style="edgeLabel;resizable=0;html=1;align=center;verticalAlign=middle;rounded=0;comic=0;fontSize=24;fontColor=#000000;strokeColor=#007FFF;strokeWidth=2;fillColor=#007FFF;" parent="3hG3ktwHdd7RbcDjbh9i-183" connectable="0" vertex="1">
          <mxGeometry relative="1" as="geometry">
            <mxPoint x="73" as="offset" />
          </mxGeometry>
        </mxCell>
        <mxCell id="3hG3ktwHdd7RbcDjbh9i-185" value="" style="endArrow=classic;html=1;rounded=0;comic=1;fontSize=24;fontColor=#000000;sourcePerimeterSpacing=2;targetPerimeterSpacing=2;strokeColor=#000000;strokeWidth=2;jumpStyle=gap;exitX=0.25;exitY=1;exitDx=0;exitDy=0;entryX=0;entryY=0.75;entryDx=0;entryDy=0;" parent="1" source="3hG3ktwHdd7RbcDjbh9i-168" target="3hG3ktwHdd7RbcDjbh9i-182" edge="1">
          <mxGeometry relative="1" as="geometry">
            <mxPoint x="488" y="4580" as="sourcePoint" />
            <mxPoint x="167.5" y="4380" as="targetPoint" />
            <Array as="points">
              <mxPoint x="83" y="4310" />
            </Array>
          </mxGeometry>
        </mxCell>
        <mxCell id="3hG3ktwHdd7RbcDjbh9i-186" value="&amp;nbsp;2. 发送消息&amp;nbsp;" style="edgeLabel;resizable=0;html=1;align=center;verticalAlign=middle;rounded=0;comic=0;fontSize=24;fontColor=#000000;strokeColor=#007FFF;strokeWidth=2;fillColor=#007FFF;" parent="3hG3ktwHdd7RbcDjbh9i-185" connectable="0" vertex="1">
          <mxGeometry relative="1" as="geometry">
            <mxPoint x="124" as="offset" />
          </mxGeometry>
        </mxCell>
        <mxCell id="3hG3ktwHdd7RbcDjbh9i-187" value="" style="endArrow=classic;html=1;rounded=0;comic=1;fontSize=24;fontColor=#000000;sourcePerimeterSpacing=2;targetPerimeterSpacing=2;strokeColor=#000000;strokeWidth=2;jumpStyle=gap;exitX=1;exitY=0.75;exitDx=0;exitDy=0;entryX=0.75;entryY=1;entryDx=0;entryDy=0;" parent="1" source="3hG3ktwHdd7RbcDjbh9i-182" target="3hG3ktwHdd7RbcDjbh9i-175" edge="1">
          <mxGeometry relative="1" as="geometry">
            <mxPoint x="92.5" y="4080" as="sourcePoint" />
            <mxPoint x="488" y="4320" as="targetPoint" />
            <Array as="points">
              <mxPoint x="958" y="4310" />
            </Array>
          </mxGeometry>
        </mxCell>
        <mxCell id="3hG3ktwHdd7RbcDjbh9i-188" value="&amp;nbsp;3. 读消息&amp;nbsp;" style="edgeLabel;resizable=0;html=1;align=center;verticalAlign=middle;rounded=0;comic=0;fontSize=24;fontColor=#000000;strokeColor=#007FFF;strokeWidth=2;fillColor=#007FFF;" parent="3hG3ktwHdd7RbcDjbh9i-187" connectable="0" vertex="1">
          <mxGeometry relative="1" as="geometry">
            <mxPoint x="-119" as="offset" />
          </mxGeometry>
        </mxCell>
        <mxCell id="3hG3ktwHdd7RbcDjbh9i-189" value="" style="endArrow=classic;html=1;rounded=0;comic=1;fontSize=24;fontColor=#000000;sourcePerimeterSpacing=2;targetPerimeterSpacing=2;strokeColor=#000000;strokeWidth=2;jumpStyle=gap;exitX=1;exitY=0.25;exitDx=0;exitDy=0;entryX=0.367;entryY=1.045;entryDx=0;entryDy=0;entryPerimeter=0;" parent="1" source="3hG3ktwHdd7RbcDjbh9i-182" target="3hG3ktwHdd7RbcDjbh9i-175" edge="1">
          <mxGeometry relative="1" as="geometry">
            <mxPoint x="622" y="4320" as="sourcePoint" />
            <mxPoint x="902.5" y="4085" as="targetPoint" />
            <Array as="points">
              <mxPoint x="835" y="4270" />
              <mxPoint x="900" y="4270" />
            </Array>
          </mxGeometry>
        </mxCell>
        <mxCell id="3hG3ktwHdd7RbcDjbh9i-190" value="&amp;nbsp;5. 返回处理结果&amp;nbsp;" style="edgeLabel;resizable=0;html=1;align=center;verticalAlign=middle;rounded=0;comic=0;fontSize=24;fontColor=#000000;strokeColor=#007FFF;strokeWidth=2;fillColor=#007FFF;" parent="3hG3ktwHdd7RbcDjbh9i-189" connectable="0" vertex="1">
          <mxGeometry relative="1" as="geometry">
            <mxPoint x="-75" as="offset" />
          </mxGeometry>
        </mxCell>
        <mxCell id="3hG3ktwHdd7RbcDjbh9i-191" value="&lt;b&gt;MQ 事务方案&lt;/b&gt;" style="text;html=1;align=center;verticalAlign=middle;resizable=0;points=[];autosize=1;strokeColor=none;fillColor=none;fontSize=24;fontColor=#000000;" parent="1" vertex="1">
          <mxGeometry x="655" y="4380" width="160" height="30" as="geometry" />
        </mxCell>
        <mxCell id="3hG3ktwHdd7RbcDjbh9i-192" value="" style="shape=datastore;whiteSpace=wrap;html=1;rounded=1;comic=0;fontSize=20;strokeColor=#007FFF;strokeWidth=2;fillColor=#d5e8d4;" parent="1" vertex="1">
          <mxGeometry x="70" y="4590" width="80" height="120" as="geometry" />
        </mxCell>
        <mxCell id="3hG3ktwHdd7RbcDjbh9i-193" value="&lt;font style=&quot;font-size: 18px&quot;&gt;&lt;b&gt;事务主动方&lt;/b&gt;&lt;/font&gt;" style="rounded=1;whiteSpace=wrap;html=1;comic=1;fillColor=#50C7C7;" parent="1" vertex="1">
          <mxGeometry x="370" y="4595" width="150" height="110" as="geometry" />
        </mxCell>
        <mxCell id="3hG3ktwHdd7RbcDjbh9i-194" value="" style="endArrow=none;html=1;rounded=0;comic=1;fontSize=24;fontColor=#000000;sourcePerimeterSpacing=2;targetPerimeterSpacing=2;strokeColor=#007FFF;strokeWidth=2;jumpStyle=gap;" parent="1" edge="1">
          <mxGeometry width="50" height="50" relative="1" as="geometry">
            <mxPoint x="30" y="4770" as="sourcePoint" />
            <mxPoint x="30" y="4770" as="targetPoint" />
            <Array as="points">
              <mxPoint x="30" y="4520" />
              <mxPoint x="550" y="4520" />
              <mxPoint x="550" y="4770" />
            </Array>
          </mxGeometry>
        </mxCell>
        <mxCell id="3hG3ktwHdd7RbcDjbh9i-195" value="" style="endArrow=classic;html=1;rounded=0;comic=1;fontSize=24;fontColor=#000000;sourcePerimeterSpacing=2;targetPerimeterSpacing=2;strokeColor=#333333;strokeWidth=2;jumpStyle=gap;exitX=0;exitY=0.5;exitDx=0;exitDy=0;entryX=1;entryY=0.5;entryDx=0;entryDy=0;" parent="1" source="3hG3ktwHdd7RbcDjbh9i-193" target="3hG3ktwHdd7RbcDjbh9i-192" edge="1">
          <mxGeometry relative="1" as="geometry">
            <mxPoint x="194" y="4460" as="sourcePoint" />
            <mxPoint x="414" y="4460" as="targetPoint" />
          </mxGeometry>
        </mxCell>
        <mxCell id="3hG3ktwHdd7RbcDjbh9i-196" value="&amp;nbsp;3. 执行本地事务&amp;nbsp;" style="edgeLabel;resizable=0;html=1;align=center;verticalAlign=middle;rounded=1;comic=0;fontSize=18;fontColor=#000000;strokeColor=#007FFF;strokeWidth=2;fillColor=#FFCCCC;" parent="3hG3ktwHdd7RbcDjbh9i-195" connectable="0" vertex="1">
          <mxGeometry relative="1" as="geometry">
            <mxPoint x="-5" as="offset" />
          </mxGeometry>
        </mxCell>
        <mxCell id="3hG3ktwHdd7RbcDjbh9i-197" value="DB" style="text;html=1;align=center;verticalAlign=middle;resizable=0;points=[];autosize=1;strokeColor=none;fillColor=none;fontSize=24;fontColor=#000000;" parent="1" vertex="1">
          <mxGeometry x="85" y="4730" width="50" height="30" as="geometry" />
        </mxCell>
        <mxCell id="3hG3ktwHdd7RbcDjbh9i-198" value="事务主动方" style="text;html=1;align=center;verticalAlign=middle;resizable=0;points=[];autosize=1;strokeColor=none;fillColor=none;fontSize=24;fontColor=#000000;" parent="1" vertex="1">
          <mxGeometry x="40" y="4535" width="140" height="30" as="geometry" />
        </mxCell>
        <mxCell id="3hG3ktwHdd7RbcDjbh9i-199" value="&lt;font style=&quot;font-size: 18px&quot;&gt;&lt;b&gt;MQ Server&lt;/b&gt;&lt;/font&gt;" style="rounded=0;whiteSpace=wrap;html=1;comic=1;fillColor=#007FFF;" parent="1" vertex="1">
          <mxGeometry x="837" y="4600" width="197" height="100" as="geometry" />
        </mxCell>
        <mxCell id="3hG3ktwHdd7RbcDjbh9i-200" value="" style="endArrow=classic;html=1;rounded=0;comic=1;fontSize=24;fontColor=#000000;sourcePerimeterSpacing=2;targetPerimeterSpacing=2;strokeColor=#333333;strokeWidth=2;jumpStyle=gap;exitX=1;exitY=0.25;exitDx=0;exitDy=0;entryX=0;entryY=0.25;entryDx=0;entryDy=0;" parent="1" source="3hG3ktwHdd7RbcDjbh9i-193" target="3hG3ktwHdd7RbcDjbh9i-199" edge="1">
          <mxGeometry relative="1" as="geometry">
            <mxPoint x="770" y="4970" as="sourcePoint" />
            <mxPoint x="550" y="4970" as="targetPoint" />
          </mxGeometry>
        </mxCell>
        <mxCell id="3hG3ktwHdd7RbcDjbh9i-201" value="&amp;nbsp;1. 发送half 消息&amp;nbsp;" style="edgeLabel;resizable=0;html=1;align=center;verticalAlign=middle;rounded=1;comic=0;fontSize=18;fontColor=#000000;strokeColor=#007FFF;strokeWidth=2;fillColor=#FFCCCC;" parent="3hG3ktwHdd7RbcDjbh9i-200" connectable="0" vertex="1">
          <mxGeometry relative="1" as="geometry">
            <mxPoint x="-5" as="offset" />
          </mxGeometry>
        </mxCell>
        <mxCell id="3hG3ktwHdd7RbcDjbh9i-202" value="" style="endArrow=classic;html=1;rounded=0;comic=1;fontSize=24;fontColor=#000000;sourcePerimeterSpacing=2;targetPerimeterSpacing=2;strokeColor=#333333;strokeWidth=2;jumpStyle=gap;exitX=0;exitY=0.5;exitDx=0;exitDy=0;entryX=1;entryY=0.5;entryDx=0;entryDy=0;dashed=1;" parent="1" source="3hG3ktwHdd7RbcDjbh9i-199" target="3hG3ktwHdd7RbcDjbh9i-193" edge="1">
          <mxGeometry relative="1" as="geometry">
            <mxPoint x="390" y="4670" as="sourcePoint" />
            <mxPoint x="170" y="4670" as="targetPoint" />
          </mxGeometry>
        </mxCell>
        <mxCell id="3hG3ktwHdd7RbcDjbh9i-203" value="&amp;nbsp;2. ack&amp;nbsp;" style="edgeLabel;resizable=0;html=1;align=center;verticalAlign=middle;rounded=1;comic=0;fontSize=18;fontColor=#000000;strokeColor=#007FFF;strokeWidth=2;fillColor=#FFCCCC;" parent="3hG3ktwHdd7RbcDjbh9i-202" connectable="0" vertex="1">
          <mxGeometry relative="1" as="geometry">
            <mxPoint x="-5" as="offset" />
          </mxGeometry>
        </mxCell>
        <mxCell id="3hG3ktwHdd7RbcDjbh9i-204" value="" style="endArrow=classic;html=1;rounded=0;comic=1;fontSize=24;fontColor=#000000;sourcePerimeterSpacing=2;targetPerimeterSpacing=2;strokeColor=#333333;strokeWidth=2;jumpStyle=gap;exitX=1;exitY=0.75;exitDx=0;exitDy=0;entryX=0;entryY=0.75;entryDx=0;entryDy=0;" parent="1" source="3hG3ktwHdd7RbcDjbh9i-193" target="3hG3ktwHdd7RbcDjbh9i-199" edge="1">
          <mxGeometry relative="1" as="geometry">
            <mxPoint x="730" y="4920" as="sourcePoint" />
            <mxPoint x="510" y="4920" as="targetPoint" />
          </mxGeometry>
        </mxCell>
        <mxCell id="3hG3ktwHdd7RbcDjbh9i-205" value="&amp;nbsp;4. commit or rollback&amp;nbsp;" style="edgeLabel;resizable=0;html=1;align=center;verticalAlign=middle;rounded=1;comic=0;fontSize=18;fontColor=#000000;strokeColor=#007FFF;strokeWidth=2;fillColor=#FFCCCC;" parent="3hG3ktwHdd7RbcDjbh9i-204" connectable="0" vertex="1">
          <mxGeometry relative="1" as="geometry">
            <mxPoint x="-5" as="offset" />
          </mxGeometry>
        </mxCell>
        <mxCell id="3hG3ktwHdd7RbcDjbh9i-206" value="" style="curved=1;endArrow=classic;html=1;rounded=0;comic=1;fontSize=24;fontColor=#000000;sourcePerimeterSpacing=2;targetPerimeterSpacing=2;strokeColor=#000000;strokeWidth=2;jumpStyle=gap;exitX=1;exitY=0.25;exitDx=0;exitDy=0;entryX=1;entryY=0.75;entryDx=0;entryDy=0;" parent="1" source="3hG3ktwHdd7RbcDjbh9i-199" target="3hG3ktwHdd7RbcDjbh9i-199" edge="1">
          <mxGeometry width="50" height="50" relative="1" as="geometry">
            <mxPoint x="1075" y="4750" as="sourcePoint" />
            <mxPoint x="1075" y="5060" as="targetPoint" />
            <Array as="points">
              <mxPoint x="1060" y="4630" />
              <mxPoint x="1060" y="4670" />
            </Array>
          </mxGeometry>
        </mxCell>
        <mxCell id="3hG3ktwHdd7RbcDjbh9i-207" value="&lt;font style=&quot;font-size: 18px&quot;&gt;&amp;nbsp;5. commit - 消息可投递;&amp;nbsp;&lt;br&gt;rollback - 删除消息&amp;nbsp;&lt;/font&gt;" style="text;html=1;align=center;verticalAlign=middle;resizable=0;points=[];autosize=1;strokeColor=none;fillColor=none;fontSize=24;fontColor=#000000;" parent="1" vertex="1">
          <mxGeometry x="1060" y="4606" width="210" height="70" as="geometry" />
        </mxCell>
        <mxCell id="3hG3ktwHdd7RbcDjbh9i-208" value="&lt;span style=&quot;font-size: 24px&quot;&gt;&lt;b&gt;事务主动方 发送&lt;font style=&quot;font-size: 24px&quot;&gt;消息&lt;/font&gt;&lt;/b&gt;&lt;/span&gt;" style="text;html=1;align=center;verticalAlign=middle;resizable=0;points=[];autosize=1;strokeColor=none;fillColor=none;fontSize=18;fontColor=#000000;" parent="1" vertex="1">
          <mxGeometry x="560" y="4790" width="240" height="30" as="geometry" />
        </mxCell>
        <mxCell id="3hG3ktwHdd7RbcDjbh9i-209" value="" style="shape=datastore;whiteSpace=wrap;html=1;rounded=1;comic=0;fontSize=20;strokeColor=#007FFF;strokeWidth=2;fillColor=#d5e8d4;" parent="1" vertex="1">
          <mxGeometry x="79" y="4980" width="80" height="120" as="geometry" />
        </mxCell>
        <mxCell id="3hG3ktwHdd7RbcDjbh9i-210" value="&lt;font style=&quot;font-size: 18px&quot;&gt;&lt;b&gt;MQ Producer&lt;/b&gt;&lt;/font&gt;" style="rounded=1;whiteSpace=wrap;html=1;comic=1;fillColor=#50C7C7;" parent="1" vertex="1">
          <mxGeometry x="379" y="4985" width="150" height="110" as="geometry" />
        </mxCell>
        <mxCell id="3hG3ktwHdd7RbcDjbh9i-211" value="" style="endArrow=none;html=1;rounded=0;comic=1;fontSize=24;fontColor=#000000;sourcePerimeterSpacing=2;targetPerimeterSpacing=2;strokeColor=#007FFF;strokeWidth=2;jumpStyle=gap;" parent="1" edge="1">
          <mxGeometry width="50" height="50" relative="1" as="geometry">
            <mxPoint x="40" y="5205" as="sourcePoint" />
            <mxPoint x="40" y="5205" as="targetPoint" />
            <Array as="points">
              <mxPoint x="40" y="4905" />
              <mxPoint x="560" y="4905" />
              <mxPoint x="560" y="5205" />
            </Array>
          </mxGeometry>
        </mxCell>
        <mxCell id="3hG3ktwHdd7RbcDjbh9i-212" value="" style="endArrow=classic;html=1;rounded=0;comic=1;fontSize=24;fontColor=#000000;sourcePerimeterSpacing=2;targetPerimeterSpacing=2;strokeColor=#333333;strokeWidth=2;jumpStyle=gap;exitX=0;exitY=0.5;exitDx=0;exitDy=0;entryX=1;entryY=0.5;entryDx=0;entryDy=0;" parent="1" source="3hG3ktwHdd7RbcDjbh9i-210" target="3hG3ktwHdd7RbcDjbh9i-209" edge="1">
          <mxGeometry relative="1" as="geometry">
            <mxPoint x="203" y="4850" as="sourcePoint" />
            <mxPoint x="423" y="4850" as="targetPoint" />
          </mxGeometry>
        </mxCell>
        <mxCell id="3hG3ktwHdd7RbcDjbh9i-213" value="&amp;nbsp;3. 执行本地事务&amp;nbsp;" style="edgeLabel;resizable=0;html=1;align=center;verticalAlign=middle;rounded=1;comic=0;fontSize=18;fontColor=#000000;strokeColor=#007FFF;strokeWidth=2;fillColor=#FFCCCC;" parent="3hG3ktwHdd7RbcDjbh9i-212" connectable="0" vertex="1">
          <mxGeometry relative="1" as="geometry">
            <mxPoint x="-5" as="offset" />
          </mxGeometry>
        </mxCell>
        <mxCell id="3hG3ktwHdd7RbcDjbh9i-214" value="DB" style="text;html=1;align=center;verticalAlign=middle;resizable=0;points=[];autosize=1;strokeColor=none;fillColor=none;fontSize=24;fontColor=#000000;" parent="1" vertex="1">
          <mxGeometry x="94" y="5120" width="50" height="30" as="geometry" />
        </mxCell>
        <mxCell id="3hG3ktwHdd7RbcDjbh9i-215" value="事务主动方" style="text;html=1;align=center;verticalAlign=middle;resizable=0;points=[];autosize=1;strokeColor=none;fillColor=none;fontSize=24;fontColor=#000000;" parent="1" vertex="1">
          <mxGeometry x="49" y="4925" width="140" height="30" as="geometry" />
        </mxCell>
        <mxCell id="3hG3ktwHdd7RbcDjbh9i-216" value="&lt;font style=&quot;font-size: 18px&quot;&gt;&lt;b&gt;MQ Server&lt;/b&gt;&lt;/font&gt;" style="rounded=0;whiteSpace=wrap;html=1;comic=1;fillColor=#007FFF;" parent="1" vertex="1">
          <mxGeometry x="846" y="4990" width="197" height="100" as="geometry" />
        </mxCell>
        <mxCell id="3hG3ktwHdd7RbcDjbh9i-217" value="" style="endArrow=classic;html=1;rounded=0;comic=1;fontSize=24;fontColor=#000000;sourcePerimeterSpacing=2;targetPerimeterSpacing=2;strokeColor=#333333;strokeWidth=2;jumpStyle=gap;exitX=1;exitY=0.25;exitDx=0;exitDy=0;entryX=0;entryY=0.25;entryDx=0;entryDy=0;" parent="1" source="3hG3ktwHdd7RbcDjbh9i-210" target="3hG3ktwHdd7RbcDjbh9i-216" edge="1">
          <mxGeometry relative="1" as="geometry">
            <mxPoint x="779" y="5360" as="sourcePoint" />
            <mxPoint x="559" y="5360" as="targetPoint" />
          </mxGeometry>
        </mxCell>
        <mxCell id="3hG3ktwHdd7RbcDjbh9i-218" value="&amp;nbsp;1. 发送half 消息&amp;nbsp;" style="edgeLabel;resizable=0;html=1;align=center;verticalAlign=middle;rounded=1;comic=0;fontSize=18;fontColor=#000000;strokeColor=#007FFF;strokeWidth=2;fillColor=#FFCCCC;" parent="3hG3ktwHdd7RbcDjbh9i-217" connectable="0" vertex="1">
          <mxGeometry relative="1" as="geometry">
            <mxPoint x="-5" as="offset" />
          </mxGeometry>
        </mxCell>
        <mxCell id="3hG3ktwHdd7RbcDjbh9i-219" value="" style="endArrow=classic;html=1;rounded=0;comic=1;fontSize=24;fontColor=#000000;sourcePerimeterSpacing=2;targetPerimeterSpacing=2;strokeColor=#333333;strokeWidth=2;jumpStyle=gap;exitX=0;exitY=0.5;exitDx=0;exitDy=0;entryX=1;entryY=0.5;entryDx=0;entryDy=0;dashed=1;" parent="1" source="3hG3ktwHdd7RbcDjbh9i-216" target="3hG3ktwHdd7RbcDjbh9i-210" edge="1">
          <mxGeometry relative="1" as="geometry">
            <mxPoint x="399" y="5060" as="sourcePoint" />
            <mxPoint x="179" y="5060" as="targetPoint" />
          </mxGeometry>
        </mxCell>
        <mxCell id="3hG3ktwHdd7RbcDjbh9i-220" value="&amp;nbsp;2. ack&amp;nbsp;" style="edgeLabel;resizable=0;html=1;align=center;verticalAlign=middle;rounded=1;comic=0;fontSize=18;fontColor=#000000;strokeColor=#007FFF;strokeWidth=2;fillColor=#FFCCCC;" parent="3hG3ktwHdd7RbcDjbh9i-219" connectable="0" vertex="1">
          <mxGeometry relative="1" as="geometry">
            <mxPoint x="-5" as="offset" />
          </mxGeometry>
        </mxCell>
        <mxCell id="3hG3ktwHdd7RbcDjbh9i-221" value="" style="endArrow=classic;html=1;rounded=0;comic=1;fontSize=24;fontColor=#000000;sourcePerimeterSpacing=2;targetPerimeterSpacing=2;strokeColor=#333333;strokeWidth=2;jumpStyle=gap;exitX=1;exitY=0.75;exitDx=0;exitDy=0;entryX=0;entryY=0.75;entryDx=0;entryDy=0;" parent="1" source="3hG3ktwHdd7RbcDjbh9i-210" target="3hG3ktwHdd7RbcDjbh9i-216" edge="1">
          <mxGeometry relative="1" as="geometry">
            <mxPoint x="739" y="5310" as="sourcePoint" />
            <mxPoint x="519" y="5310" as="targetPoint" />
          </mxGeometry>
        </mxCell>
        <mxCell id="3hG3ktwHdd7RbcDjbh9i-222" value="&lt;font color=&quot;#ff0000&quot;&gt;&amp;nbsp;4. 超时无反馈消息&amp;nbsp;&lt;/font&gt;" style="edgeLabel;resizable=0;html=1;align=center;verticalAlign=middle;rounded=1;comic=0;fontSize=18;fontColor=#000000;strokeColor=#007FFF;strokeWidth=2;fillColor=#FFCCCC;" parent="3hG3ktwHdd7RbcDjbh9i-221" connectable="0" vertex="1">
          <mxGeometry relative="1" as="geometry">
            <mxPoint x="-5" as="offset" />
          </mxGeometry>
        </mxCell>
        <mxCell id="3hG3ktwHdd7RbcDjbh9i-223" value="" style="curved=1;endArrow=classic;html=1;rounded=0;comic=1;fontSize=24;fontColor=#000000;sourcePerimeterSpacing=2;targetPerimeterSpacing=2;strokeColor=#000000;strokeWidth=2;jumpStyle=gap;exitX=1;exitY=0.25;exitDx=0;exitDy=0;entryX=1;entryY=0.75;entryDx=0;entryDy=0;" parent="1" source="3hG3ktwHdd7RbcDjbh9i-216" target="3hG3ktwHdd7RbcDjbh9i-216" edge="1">
          <mxGeometry width="50" height="50" relative="1" as="geometry">
            <mxPoint x="1084" y="5140" as="sourcePoint" />
            <mxPoint x="1084" y="5450" as="targetPoint" />
            <Array as="points">
              <mxPoint x="1069" y="5020" />
              <mxPoint x="1069" y="5060" />
            </Array>
          </mxGeometry>
        </mxCell>
        <mxCell id="3hG3ktwHdd7RbcDjbh9i-224" value="&lt;font style=&quot;font-size: 18px&quot;&gt;&amp;nbsp;8. commit - 消息可投递;&amp;nbsp;&lt;br&gt;rollback - 删除消息&amp;nbsp;&lt;/font&gt;" style="text;html=1;align=center;verticalAlign=middle;resizable=0;points=[];autosize=1;strokeColor=none;fillColor=none;fontSize=24;fontColor=#000000;" parent="1" vertex="1">
          <mxGeometry x="1069" y="5005" width="210" height="70" as="geometry" />
        </mxCell>
        <mxCell id="3hG3ktwHdd7RbcDjbh9i-225" value="&lt;span style=&quot;font-size: 24px&quot;&gt;&lt;b&gt;事务主动方 &lt;font style=&quot;font-size: 24px&quot;&gt;消息恢复&lt;/font&gt;&lt;/b&gt;&lt;/span&gt;" style="text;html=1;align=center;verticalAlign=middle;resizable=0;points=[];autosize=1;strokeColor=none;fillColor=none;fontSize=18;fontColor=#000000;" parent="1" vertex="1">
          <mxGeometry x="555" y="5240" width="240" height="30" as="geometry" />
        </mxCell>
        <mxCell id="3hG3ktwHdd7RbcDjbh9i-226" value="" style="endArrow=classic;html=1;rounded=0;comic=1;fontSize=24;fontColor=#000000;sourcePerimeterSpacing=2;targetPerimeterSpacing=2;strokeColor=#000000;strokeWidth=2;jumpStyle=gap;exitX=0.25;exitY=1;exitDx=0;exitDy=0;entryX=0.5;entryY=1;entryDx=0;entryDy=0;" parent="1" source="3hG3ktwHdd7RbcDjbh9i-210" target="3hG3ktwHdd7RbcDjbh9i-209" edge="1">
          <mxGeometry width="50" height="50" relative="1" as="geometry">
            <mxPoint x="340" y="5440" as="sourcePoint" />
            <mxPoint x="390" y="5390" as="targetPoint" />
            <Array as="points">
              <mxPoint x="417" y="5160" />
              <mxPoint x="119" y="5160" />
            </Array>
          </mxGeometry>
        </mxCell>
        <mxCell id="3hG3ktwHdd7RbcDjbh9i-227" value="&amp;nbsp;6. 回查事务状态&amp;nbsp;" style="edgeLabel;html=1;align=center;verticalAlign=middle;resizable=0;points=[];fontSize=18;fontColor=#000000;" parent="3hG3ktwHdd7RbcDjbh9i-226" vertex="1" connectable="0">
          <mxGeometry x="0.1188" y="1" relative="1" as="geometry">
            <mxPoint x="-1" as="offset" />
          </mxGeometry>
        </mxCell>
        <mxCell id="3hG3ktwHdd7RbcDjbh9i-228" value="" style="endArrow=classic;html=1;rounded=0;comic=1;fontSize=24;fontColor=#000000;sourcePerimeterSpacing=2;targetPerimeterSpacing=2;strokeColor=#000000;strokeWidth=2;jumpStyle=gap;exitX=0.5;exitY=1;exitDx=0;exitDy=0;entryX=0.75;entryY=1;entryDx=0;entryDy=0;" parent="1" source="3hG3ktwHdd7RbcDjbh9i-216" target="3hG3ktwHdd7RbcDjbh9i-210" edge="1">
          <mxGeometry width="50" height="50" relative="1" as="geometry">
            <mxPoint x="952" y="5110" as="sourcePoint" />
            <mxPoint x="617" y="5115" as="targetPoint" />
            <Array as="points">
              <mxPoint x="945" y="5140" />
              <mxPoint x="492" y="5140" />
            </Array>
          </mxGeometry>
        </mxCell>
        <mxCell id="3hG3ktwHdd7RbcDjbh9i-229" value="&amp;nbsp;5. 消息回查" style="edgeLabel;html=1;align=center;verticalAlign=middle;resizable=0;points=[];fontSize=18;fontColor=#000000;" parent="3hG3ktwHdd7RbcDjbh9i-228" vertex="1" connectable="0">
          <mxGeometry x="0.1188" y="1" relative="1" as="geometry">
            <mxPoint x="22" as="offset" />
          </mxGeometry>
        </mxCell>
        <mxCell id="3hG3ktwHdd7RbcDjbh9i-230" value="" style="endArrow=classic;html=1;rounded=0;comic=1;fontSize=24;fontColor=#000000;sourcePerimeterSpacing=2;targetPerimeterSpacing=2;strokeColor=#000000;strokeWidth=2;jumpStyle=gap;exitX=0.75;exitY=1;exitDx=0;exitDy=0;entryX=0.5;entryY=1;entryDx=0;entryDy=0;" parent="1" source="3hG3ktwHdd7RbcDjbh9i-216" target="3hG3ktwHdd7RbcDjbh9i-210" edge="1">
          <mxGeometry width="50" height="50" relative="1" as="geometry">
            <mxPoint x="906.25" y="5140" as="sourcePoint" />
            <mxPoint x="453.25" y="5145" as="targetPoint" />
            <Array as="points">
              <mxPoint x="994" y="5180" />
              <mxPoint x="454" y="5180" />
            </Array>
          </mxGeometry>
        </mxCell>
        <mxCell id="3hG3ktwHdd7RbcDjbh9i-231" value="&amp;nbsp;7. 根据回查结果 commit or rollback&amp;nbsp;" style="edgeLabel;html=1;align=center;verticalAlign=middle;resizable=0;points=[];fontSize=18;fontColor=#000000;" parent="3hG3ktwHdd7RbcDjbh9i-230" vertex="1" connectable="0">
          <mxGeometry x="0.1188" y="1" relative="1" as="geometry">
            <mxPoint x="46" as="offset" />
          </mxGeometry>
        </mxCell>
        <mxCell id="3hG3ktwHdd7RbcDjbh9i-232" value="&lt;font style=&quot;font-size: 18px&quot;&gt;&lt;b&gt;事务主动方&lt;/b&gt;&lt;/font&gt;" style="rounded=1;whiteSpace=wrap;html=1;comic=1;fillColor=#50C7C7;" parent="1" vertex="1">
          <mxGeometry x="20" y="5460" width="150" height="110" as="geometry" />
        </mxCell>
        <mxCell id="3hG3ktwHdd7RbcDjbh9i-233" value="" style="shape=datastore;whiteSpace=wrap;html=1;rounded=1;comic=0;fontSize=20;strokeColor=#007FFF;strokeWidth=2;fillColor=#d5e8d4;" parent="1" vertex="1">
          <mxGeometry x="390" y="5455" width="80" height="120" as="geometry" />
        </mxCell>
        <mxCell id="3hG3ktwHdd7RbcDjbh9i-234" value="事务主动方 DB" style="text;html=1;align=center;verticalAlign=middle;resizable=0;points=[];autosize=1;strokeColor=none;fillColor=none;fontSize=24;fontColor=#000000;" parent="1" vertex="1">
          <mxGeometry x="340" y="5585" width="180" height="30" as="geometry" />
        </mxCell>
        <mxCell id="3hG3ktwHdd7RbcDjbh9i-235" value="" style="endArrow=classic;html=1;rounded=0;comic=1;fontSize=24;fontColor=#000000;sourcePerimeterSpacing=2;targetPerimeterSpacing=2;strokeColor=#333333;strokeWidth=2;jumpStyle=gap;exitX=1;exitY=0.5;exitDx=0;exitDy=0;entryX=0;entryY=0.5;entryDx=0;entryDy=0;" parent="1" source="3hG3ktwHdd7RbcDjbh9i-232" target="3hG3ktwHdd7RbcDjbh9i-233" edge="1">
          <mxGeometry relative="1" as="geometry">
            <mxPoint x="210" y="5404.299999999999" as="sourcePoint" />
            <mxPoint x="480" y="5320" as="targetPoint" />
          </mxGeometry>
        </mxCell>
        <mxCell id="3hG3ktwHdd7RbcDjbh9i-236" value="&amp;nbsp;1. 写业务表数据&amp;nbsp;" style="edgeLabel;resizable=0;html=1;align=center;verticalAlign=middle;rounded=1;comic=0;fontSize=18;fontColor=#000000;strokeColor=#007FFF;strokeWidth=2;fillColor=#FFCCCC;" parent="3hG3ktwHdd7RbcDjbh9i-235" connectable="0" vertex="1">
          <mxGeometry relative="1" as="geometry">
            <mxPoint x="-5" as="offset" />
          </mxGeometry>
        </mxCell>
        <mxCell id="3hG3ktwHdd7RbcDjbh9i-237" value="" style="endArrow=none;html=1;rounded=0;comic=1;fontSize=24;fontColor=#000000;sourcePerimeterSpacing=2;targetPerimeterSpacing=2;strokeColor=#007FFF;strokeWidth=2;jumpStyle=gap;" parent="1" edge="1">
          <mxGeometry width="50" height="50" relative="1" as="geometry">
            <mxPoint x="10" y="5650" as="sourcePoint" />
            <mxPoint x="10" y="5650" as="targetPoint" />
            <Array as="points">
              <mxPoint x="10" y="5370" />
              <mxPoint x="530" y="5370" />
              <mxPoint x="530" y="5650" />
            </Array>
          </mxGeometry>
        </mxCell>
        <mxCell id="3hG3ktwHdd7RbcDjbh9i-238" value="本地事务" style="text;html=1;align=center;verticalAlign=middle;resizable=0;points=[];autosize=1;strokeColor=none;fillColor=none;fontSize=24;fontColor=#000000;" parent="1" vertex="1">
          <mxGeometry x="30" y="5400" width="110" height="30" as="geometry" />
        </mxCell>
        <mxCell id="3hG3ktwHdd7RbcDjbh9i-239" value="&lt;font style=&quot;font-size: 18px&quot;&gt;&lt;b&gt;事务被动方&lt;/b&gt;&lt;/font&gt;" style="rounded=1;whiteSpace=wrap;html=1;comic=1;fillColor=#FF9933;" parent="1" vertex="1">
          <mxGeometry x="820" y="5460" width="150" height="110" as="geometry" />
        </mxCell>
        <mxCell id="3hG3ktwHdd7RbcDjbh9i-240" value="" style="shape=datastore;whiteSpace=wrap;html=1;rounded=1;comic=0;fontSize=20;strokeColor=#007FFF;strokeWidth=2;fillColor=#d5e8d4;" parent="1" vertex="1">
          <mxGeometry x="1190" y="5455" width="80" height="120" as="geometry" />
        </mxCell>
        <mxCell id="3hG3ktwHdd7RbcDjbh9i-241" value="事务被动方 DB" style="text;html=1;align=center;verticalAlign=middle;resizable=0;points=[];autosize=1;strokeColor=none;fillColor=none;fontSize=24;fontColor=#000000;" parent="1" vertex="1">
          <mxGeometry x="1140" y="5585" width="180" height="30" as="geometry" />
        </mxCell>
        <mxCell id="3hG3ktwHdd7RbcDjbh9i-242" value="" style="endArrow=classic;html=1;rounded=0;comic=1;fontSize=24;fontColor=#000000;sourcePerimeterSpacing=2;targetPerimeterSpacing=2;strokeColor=#333333;strokeWidth=2;jumpStyle=gap;exitX=1;exitY=0.5;exitDx=0;exitDy=0;entryX=0;entryY=0.5;entryDx=0;entryDy=0;" parent="1" source="3hG3ktwHdd7RbcDjbh9i-239" target="3hG3ktwHdd7RbcDjbh9i-240" edge="1">
          <mxGeometry relative="1" as="geometry">
            <mxPoint x="1010" y="5404.299999999999" as="sourcePoint" />
            <mxPoint x="1280" y="5320" as="targetPoint" />
          </mxGeometry>
        </mxCell>
        <mxCell id="3hG3ktwHdd7RbcDjbh9i-243" value="&amp;nbsp;4. 写业务表数据&amp;nbsp;" style="edgeLabel;resizable=0;html=1;align=center;verticalAlign=middle;rounded=1;comic=0;fontSize=18;fontColor=#000000;strokeColor=#007FFF;strokeWidth=2;fillColor=#FFCCCC;" parent="3hG3ktwHdd7RbcDjbh9i-242" connectable="0" vertex="1">
          <mxGeometry relative="1" as="geometry">
            <mxPoint y="-5" as="offset" />
          </mxGeometry>
        </mxCell>
        <mxCell id="3hG3ktwHdd7RbcDjbh9i-244" value="" style="endArrow=none;html=1;rounded=0;comic=1;fontSize=24;fontColor=#000000;sourcePerimeterSpacing=2;targetPerimeterSpacing=2;strokeColor=#007FFF;strokeWidth=2;jumpStyle=gap;" parent="1" edge="1">
          <mxGeometry width="50" height="50" relative="1" as="geometry">
            <mxPoint x="810" y="5650" as="sourcePoint" />
            <mxPoint x="810" y="5650" as="targetPoint" />
            <Array as="points">
              <mxPoint x="810" y="5370" />
              <mxPoint x="1330" y="5370" />
              <mxPoint x="1330" y="5650" />
            </Array>
          </mxGeometry>
        </mxCell>
        <mxCell id="3hG3ktwHdd7RbcDjbh9i-245" value="本地事务" style="text;html=1;align=center;verticalAlign=middle;resizable=0;points=[];autosize=1;strokeColor=none;fillColor=none;fontSize=24;fontColor=#000000;" parent="1" vertex="1">
          <mxGeometry x="830" y="5400" width="110" height="30" as="geometry" />
        </mxCell>
        <mxCell id="3hG3ktwHdd7RbcDjbh9i-246" value="&lt;font style=&quot;font-size: 18px&quot;&gt;&lt;b&gt;MQ Server&lt;/b&gt;&lt;/font&gt;" style="rounded=0;whiteSpace=wrap;html=1;comic=1;fillColor=#007FFF;" parent="1" vertex="1">
          <mxGeometry x="390" y="5750" width="197" height="80" as="geometry" />
        </mxCell>
        <mxCell id="3hG3ktwHdd7RbcDjbh9i-247" value="" style="endArrow=classic;html=1;rounded=0;comic=1;fontSize=24;fontColor=#000000;sourcePerimeterSpacing=2;targetPerimeterSpacing=2;strokeColor=#000000;strokeWidth=2;jumpStyle=gap;exitX=0;exitY=0.25;exitDx=0;exitDy=0;entryX=0.75;entryY=1;entryDx=0;entryDy=0;" parent="1" source="3hG3ktwHdd7RbcDjbh9i-246" target="3hG3ktwHdd7RbcDjbh9i-232" edge="1">
          <mxGeometry relative="1" as="geometry">
            <mxPoint x="620" y="5460" as="sourcePoint" />
            <mxPoint x="720" y="5460" as="targetPoint" />
            <Array as="points">
              <mxPoint x="130" y="5770" />
            </Array>
          </mxGeometry>
        </mxCell>
        <mxCell id="3hG3ktwHdd7RbcDjbh9i-248" value="&amp;nbsp;6. 读消息&amp;nbsp;" style="edgeLabel;resizable=0;html=1;align=center;verticalAlign=middle;rounded=0;comic=0;fontSize=24;fontColor=#000000;strokeColor=#007FFF;strokeWidth=2;fillColor=#007FFF;" parent="3hG3ktwHdd7RbcDjbh9i-247" connectable="0" vertex="1">
          <mxGeometry relative="1" as="geometry">
            <mxPoint x="73" as="offset" />
          </mxGeometry>
        </mxCell>
        <mxCell id="3hG3ktwHdd7RbcDjbh9i-249" value="" style="endArrow=classic;html=1;rounded=0;comic=1;fontSize=24;fontColor=#000000;sourcePerimeterSpacing=2;targetPerimeterSpacing=2;strokeColor=#000000;strokeWidth=2;jumpStyle=gap;exitX=0.25;exitY=1;exitDx=0;exitDy=0;entryX=0;entryY=0.75;entryDx=0;entryDy=0;" parent="1" source="3hG3ktwHdd7RbcDjbh9i-232" target="3hG3ktwHdd7RbcDjbh9i-246" edge="1">
          <mxGeometry relative="1" as="geometry">
            <mxPoint x="463" y="6080" as="sourcePoint" />
            <mxPoint x="142.5" y="5880" as="targetPoint" />
            <Array as="points">
              <mxPoint x="58" y="5810" />
            </Array>
          </mxGeometry>
        </mxCell>
        <mxCell id="3hG3ktwHdd7RbcDjbh9i-250" value="&amp;nbsp;2. 发送消息&amp;nbsp;" style="edgeLabel;resizable=0;html=1;align=center;verticalAlign=middle;rounded=0;comic=0;fontSize=24;fontColor=#000000;strokeColor=#007FFF;strokeWidth=2;fillColor=#007FFF;" parent="3hG3ktwHdd7RbcDjbh9i-249" connectable="0" vertex="1">
          <mxGeometry relative="1" as="geometry">
            <mxPoint x="124" as="offset" />
          </mxGeometry>
        </mxCell>
        <mxCell id="3hG3ktwHdd7RbcDjbh9i-251" value="" style="endArrow=classic;html=1;rounded=0;comic=1;fontSize=24;fontColor=#000000;sourcePerimeterSpacing=2;targetPerimeterSpacing=2;strokeColor=#000000;strokeWidth=2;jumpStyle=gap;exitX=1;exitY=0.75;exitDx=0;exitDy=0;entryX=0.75;entryY=1;entryDx=0;entryDy=0;" parent="1" source="3hG3ktwHdd7RbcDjbh9i-246" target="3hG3ktwHdd7RbcDjbh9i-239" edge="1">
          <mxGeometry relative="1" as="geometry">
            <mxPoint x="67.5" y="5580" as="sourcePoint" />
            <mxPoint x="463" y="5820" as="targetPoint" />
            <Array as="points">
              <mxPoint x="930" y="5810" />
            </Array>
          </mxGeometry>
        </mxCell>
        <mxCell id="3hG3ktwHdd7RbcDjbh9i-252" value="&amp;nbsp;3. 读消息&amp;nbsp;" style="edgeLabel;resizable=0;html=1;align=center;verticalAlign=middle;rounded=0;comic=0;fontSize=24;fontColor=#000000;strokeColor=#007FFF;strokeWidth=2;fillColor=#007FFF;" parent="3hG3ktwHdd7RbcDjbh9i-251" connectable="0" vertex="1">
          <mxGeometry relative="1" as="geometry">
            <mxPoint x="-119" as="offset" />
          </mxGeometry>
        </mxCell>
        <mxCell id="3hG3ktwHdd7RbcDjbh9i-253" value="" style="endArrow=classic;html=1;rounded=0;comic=1;fontSize=24;fontColor=#000000;sourcePerimeterSpacing=2;targetPerimeterSpacing=2;strokeColor=#000000;strokeWidth=2;jumpStyle=gap;exitX=1;exitY=0.25;exitDx=0;exitDy=0;entryX=0.367;entryY=1.045;entryDx=0;entryDy=0;entryPerimeter=0;" parent="1" source="3hG3ktwHdd7RbcDjbh9i-246" target="3hG3ktwHdd7RbcDjbh9i-239" edge="1">
          <mxGeometry relative="1" as="geometry">
            <mxPoint x="597" y="5820" as="sourcePoint" />
            <mxPoint x="877.5" y="5585" as="targetPoint" />
            <Array as="points">
              <mxPoint x="810" y="5770" />
              <mxPoint x="870" y="5770" />
            </Array>
          </mxGeometry>
        </mxCell>
        <mxCell id="3hG3ktwHdd7RbcDjbh9i-254" value="&amp;nbsp;5. 返回处理结果&amp;nbsp;" style="edgeLabel;resizable=0;html=1;align=center;verticalAlign=middle;rounded=0;comic=0;fontSize=24;fontColor=#000000;strokeColor=#007FFF;strokeWidth=2;fillColor=#007FFF;" parent="3hG3ktwHdd7RbcDjbh9i-253" connectable="0" vertex="1">
          <mxGeometry relative="1" as="geometry">
            <mxPoint x="-75" as="offset" />
          </mxGeometry>
        </mxCell>
        <mxCell id="3hG3ktwHdd7RbcDjbh9i-255" value="&lt;b&gt;最大努力通知&lt;/b&gt;" style="text;html=1;align=center;verticalAlign=middle;resizable=0;points=[];autosize=1;strokeColor=none;fillColor=none;fontSize=24;fontColor=#000000;" parent="1" vertex="1">
          <mxGeometry x="630" y="5880" width="160" height="30" as="geometry" />
        </mxCell>
        <mxCell id="3hG3ktwHdd7RbcDjbh9i-256" value="" style="endArrow=classic;html=1;rounded=0;comic=1;fontSize=18;fontColor=#FF0000;sourcePerimeterSpacing=2;targetPerimeterSpacing=2;strokeColor=#EA6B66;strokeWidth=2;jumpStyle=gap;exitX=0.5;exitY=0;exitDx=0;exitDy=0;entryX=0.5;entryY=0;entryDx=0;entryDy=0;dashed=1;" parent="1" source="3hG3ktwHdd7RbcDjbh9i-239" target="3hG3ktwHdd7RbcDjbh9i-233" edge="1">
          <mxGeometry width="50" height="50" relative="1" as="geometry">
            <mxPoint x="1223" y="5420" as="sourcePoint" />
            <mxPoint x="1373" y="5120" as="targetPoint" />
            <Array as="points">
              <mxPoint x="895" y="5320" />
              <mxPoint x="430" y="5320" />
            </Array>
          </mxGeometry>
        </mxCell>
        <mxCell id="3hG3ktwHdd7RbcDjbh9i-257" value="&lt;b&gt;&lt;font color=&quot;#ea6b66&quot;&gt;消息校对, 主动调用事务主动方的消息校对借口&lt;/font&gt;&lt;/b&gt;" style="edgeLabel;html=1;align=center;verticalAlign=middle;resizable=0;points=[];fontSize=18;fontColor=#FF0000;" parent="3hG3ktwHdd7RbcDjbh9i-256" vertex="1" connectable="0">
          <mxGeometry x="0.1036" y="1" relative="1" as="geometry">
            <mxPoint x="28" as="offset" />
          </mxGeometry>
        </mxCell>
        <mxCell id="ZHi2_V2Wxbe6XPxI6Dn0-2" value="" style="line;strokeWidth=4;html=1;perimeter=backbonePerimeter;points=[];outlineConnect=0;" parent="1" vertex="1">
          <mxGeometry x="-750" y="6330" width="3200" height="10" as="geometry" />
        </mxCell>
        <mxCell id="ZHi2_V2Wxbe6XPxI6Dn0-6" value="&lt;font size=&quot;1&quot;&gt;&lt;b style=&quot;font-size: 24px&quot;&gt;客户端&lt;/b&gt;&lt;/font&gt;" style="rounded=1;whiteSpace=wrap;html=1;comic=1;fillColor=#50C7C7;" parent="1" vertex="1">
          <mxGeometry x="-260" y="6550" width="150" height="70" as="geometry" />
        </mxCell>
        <mxCell id="ZHi2_V2Wxbe6XPxI6Dn0-7" value="&lt;font size=&quot;1&quot;&gt;&lt;b style=&quot;font-size: 24px&quot;&gt;客户端&lt;/b&gt;&lt;/font&gt;" style="rounded=1;whiteSpace=wrap;html=1;comic=1;fillColor=#50C7C7;" parent="1" vertex="1">
          <mxGeometry x="-260" y="6740" width="150" height="70" as="geometry" />
        </mxCell>
        <mxCell id="ZHi2_V2Wxbe6XPxI6Dn0-10" value="" style="rounded=1;whiteSpace=wrap;html=1;comic=1;fillColor=#dae8fc;fontSize=24;strokeColor=#6c8ebf;jiggle=1;" parent="1" vertex="1">
          <mxGeometry x="30" y="6490" width="220" height="380" as="geometry" />
        </mxCell>
        <mxCell id="ZHi2_V2Wxbe6XPxI6Dn0-8" value="&lt;b&gt;&lt;font style=&quot;font-size: 18px&quot;&gt;单点&lt;/font&gt;&lt;font style=&quot;font-size: 18px&quot;&gt;入口&lt;/font&gt;&lt;/b&gt;" style="rounded=1;whiteSpace=wrap;html=1;comic=1;fontSize=14;fillColor=#f8cecc;strokeColor=#b85450;overflow=hidden;" parent="1" vertex="1">
          <mxGeometry x="69" y="6570" width="140" height="40" as="geometry" />
        </mxCell>
        <mxCell id="ZHi2_V2Wxbe6XPxI6Dn0-14" value="&lt;b&gt;&lt;font style=&quot;font-size: 18px&quot;&gt;单点&lt;/font&gt;&lt;font style=&quot;font-size: 18px&quot;&gt;入口&lt;/font&gt;&lt;/b&gt;" style="rounded=1;whiteSpace=wrap;html=1;comic=1;fontSize=14;fillColor=#f8cecc;strokeColor=#b85450;overflow=hidden;" parent="1" vertex="1">
          <mxGeometry x="69" y="6630" width="140" height="40" as="geometry" />
        </mxCell>
        <mxCell id="ZHi2_V2Wxbe6XPxI6Dn0-15" value="&lt;b&gt;&lt;font style=&quot;font-size: 18px&quot;&gt;单点&lt;/font&gt;&lt;font style=&quot;font-size: 18px&quot;&gt;入口&lt;/font&gt;&lt;/b&gt;" style="rounded=1;whiteSpace=wrap;html=1;comic=1;fontSize=14;fillColor=#f8cecc;strokeColor=#b85450;overflow=hidden;" parent="1" vertex="1">
          <mxGeometry x="69" y="6690" width="140" height="40" as="geometry" />
        </mxCell>
        <mxCell id="ZHi2_V2Wxbe6XPxI6Dn0-16" value="&lt;b&gt;&lt;font style=&quot;font-size: 18px&quot;&gt;单点&lt;/font&gt;&lt;font style=&quot;font-size: 18px&quot;&gt;入口&lt;/font&gt;&lt;/b&gt;" style="rounded=1;whiteSpace=wrap;html=1;comic=1;fontSize=14;fillColor=#f8cecc;strokeColor=#b85450;overflow=hidden;" parent="1" vertex="1">
          <mxGeometry x="69" y="6750" width="140" height="40" as="geometry" />
        </mxCell>
        <mxCell id="ZHi2_V2Wxbe6XPxI6Dn0-17" value="&lt;b&gt;&lt;font style=&quot;font-size: 18px&quot;&gt;单点&lt;/font&gt;&lt;font style=&quot;font-size: 18px&quot;&gt;入口&lt;/font&gt;&lt;/b&gt;" style="rounded=1;whiteSpace=wrap;html=1;comic=1;fontSize=14;fillColor=#f8cecc;strokeColor=#b85450;overflow=hidden;" parent="1" vertex="1">
          <mxGeometry x="69" y="6810" width="140" height="40" as="geometry" />
        </mxCell>
        <mxCell id="ZHi2_V2Wxbe6XPxI6Dn0-18" value="&lt;font style=&quot;font-size: 24px&quot;&gt;&lt;b&gt;API Gateway&lt;/b&gt;&lt;/font&gt;" style="text;html=1;align=center;verticalAlign=middle;resizable=0;points=[];autosize=1;strokeColor=none;fillColor=none;fontSize=18;" parent="1" vertex="1">
          <mxGeometry x="58" y="6510" width="160" height="30" as="geometry" />
        </mxCell>
        <mxCell id="ZHi2_V2Wxbe6XPxI6Dn0-20" value="" style="endArrow=classic;html=1;rounded=0;fontSize=24;exitX=1;exitY=0.5;exitDx=0;exitDy=0;entryX=0;entryY=0.25;entryDx=0;entryDy=0;comic=1;strokeWidth=2;strokeColor=#50C7C7;" parent="1" source="ZHi2_V2Wxbe6XPxI6Dn0-6" target="ZHi2_V2Wxbe6XPxI6Dn0-10" edge="1">
          <mxGeometry width="50" height="50" relative="1" as="geometry">
            <mxPoint x="100" y="6770" as="sourcePoint" />
            <mxPoint x="150" y="6720" as="targetPoint" />
          </mxGeometry>
        </mxCell>
        <mxCell id="ZHi2_V2Wxbe6XPxI6Dn0-22" value="" style="endArrow=classic;html=1;rounded=0;fontSize=24;exitX=1;exitY=0.5;exitDx=0;exitDy=0;entryX=0;entryY=0.75;entryDx=0;entryDy=0;comic=1;strokeWidth=2;strokeColor=#50C7C7;" parent="1" source="ZHi2_V2Wxbe6XPxI6Dn0-7" target="ZHi2_V2Wxbe6XPxI6Dn0-10" edge="1">
          <mxGeometry width="50" height="50" relative="1" as="geometry">
            <mxPoint x="-100" y="6594.999999999999" as="sourcePoint" />
            <mxPoint x="30" y="6592.499999999999" as="targetPoint" />
          </mxGeometry>
        </mxCell>
        <mxCell id="ZHi2_V2Wxbe6XPxI6Dn0-23" value="" style="endArrow=classic;html=1;rounded=0;fontSize=24;exitX=1;exitY=0.5;exitDx=0;exitDy=0;comic=1;strokeWidth=2;strokeColor=#000000;entryX=0;entryY=0.5;entryDx=0;entryDy=0;" parent="1" source="ZHi2_V2Wxbe6XPxI6Dn0-10" target="ZHi2_V2Wxbe6XPxI6Dn0-27" edge="1">
          <mxGeometry width="50" height="50" relative="1" as="geometry">
            <mxPoint x="-100" y="6784.999999999999" as="sourcePoint" />
            <mxPoint x="440" y="6560" as="targetPoint" />
          </mxGeometry>
        </mxCell>
        <mxCell id="ZHi2_V2Wxbe6XPxI6Dn0-24" value="" style="endArrow=classic;html=1;rounded=0;fontSize=24;comic=1;strokeWidth=2;strokeColor=#000000;entryX=0;entryY=0.5;entryDx=0;entryDy=0;" parent="1" target="ZHi2_V2Wxbe6XPxI6Dn0-28" edge="1">
          <mxGeometry width="50" height="50" relative="1" as="geometry">
            <mxPoint x="250" y="6680" as="sourcePoint" />
            <mxPoint x="440" y="6640" as="targetPoint" />
          </mxGeometry>
        </mxCell>
        <mxCell id="ZHi2_V2Wxbe6XPxI6Dn0-25" value="" style="endArrow=classic;html=1;rounded=0;fontSize=24;comic=1;strokeWidth=2;strokeColor=#000000;exitX=1;exitY=0.5;exitDx=0;exitDy=0;entryX=0;entryY=0.5;entryDx=0;entryDy=0;" parent="1" source="ZHi2_V2Wxbe6XPxI6Dn0-10" target="ZHi2_V2Wxbe6XPxI6Dn0-29" edge="1">
          <mxGeometry width="50" height="50" relative="1" as="geometry">
            <mxPoint x="260" y="6689.999999999999" as="sourcePoint" />
            <mxPoint x="440" y="6720" as="targetPoint" />
          </mxGeometry>
        </mxCell>
        <mxCell id="ZHi2_V2Wxbe6XPxI6Dn0-26" value="" style="endArrow=classic;html=1;rounded=0;fontSize=24;comic=1;strokeWidth=2;strokeColor=#000000;exitX=1;exitY=0.5;exitDx=0;exitDy=0;entryX=0;entryY=0.5;entryDx=0;entryDy=0;" parent="1" source="ZHi2_V2Wxbe6XPxI6Dn0-10" target="ZHi2_V2Wxbe6XPxI6Dn0-30" edge="1">
          <mxGeometry width="50" height="50" relative="1" as="geometry">
            <mxPoint x="260" y="6689.999999999999" as="sourcePoint" />
            <mxPoint x="440" y="6790" as="targetPoint" />
          </mxGeometry>
        </mxCell>
        <mxCell id="ZHi2_V2Wxbe6XPxI6Dn0-27" value="&lt;font style=&quot;font-size: 18px&quot;&gt;&lt;b&gt;用户微服务&lt;/b&gt;&lt;/font&gt;" style="rounded=1;whiteSpace=wrap;html=1;comic=1;fillColor=#fff2cc;jiggle=1;fontSize=24;strokeColor=#d6b656;" parent="1" vertex="1">
          <mxGeometry x="438.5" y="6520" width="150" height="60" as="geometry" />
        </mxCell>
        <mxCell id="ZHi2_V2Wxbe6XPxI6Dn0-28" value="&lt;font style=&quot;font-size: 18px&quot;&gt;&lt;b&gt;商品微服务&lt;/b&gt;&lt;/font&gt;" style="rounded=1;whiteSpace=wrap;html=1;comic=1;fillColor=#fff2cc;jiggle=1;fontSize=24;strokeColor=#d6b656;" parent="1" vertex="1">
          <mxGeometry x="440" y="6600" width="150" height="60" as="geometry" />
        </mxCell>
        <mxCell id="ZHi2_V2Wxbe6XPxI6Dn0-29" value="&lt;font style=&quot;font-size: 18px&quot;&gt;&lt;b&gt;购物车微服务&lt;/b&gt;&lt;/font&gt;" style="rounded=1;whiteSpace=wrap;html=1;comic=1;fillColor=#fff2cc;jiggle=1;fontSize=24;strokeColor=#d6b656;" parent="1" vertex="1">
          <mxGeometry x="438.5" y="6680" width="150" height="60" as="geometry" />
        </mxCell>
        <mxCell id="ZHi2_V2Wxbe6XPxI6Dn0-30" value="&lt;font style=&quot;font-size: 18px&quot;&gt;&lt;b&gt;支付微服务&lt;/b&gt;&lt;/font&gt;" style="rounded=1;whiteSpace=wrap;html=1;comic=1;fillColor=#fff2cc;jiggle=1;fontSize=24;strokeColor=#d6b656;" parent="1" vertex="1">
          <mxGeometry x="440" y="6760" width="150" height="60" as="geometry" />
        </mxCell>
        <mxCell id="uQwGvMqORdM1SB5QROvM-1" value="" style="line;strokeWidth=4;html=1;perimeter=backbonePerimeter;points=[];outlineConnect=0;" vertex="1" parent="1">
          <mxGeometry x="-780" y="7190" width="3200" height="10" as="geometry" />
        </mxCell>
        <mxCell id="uQwGvMqORdM1SB5QROvM-2" value="&lt;span style=&quot;font-size: 16px&quot;&gt;&lt;b&gt;解析 SQL 语意&lt;/b&gt;&lt;/span&gt;" style="rounded=0;whiteSpace=wrap;html=1;fillColor=#00FFFF;" vertex="1" parent="1">
          <mxGeometry x="-400" y="7280" width="120" height="40" as="geometry" />
        </mxCell>
        <mxCell id="uQwGvMqORdM1SB5QROvM-3" value="&lt;span style=&quot;font-size: 16px&quot;&gt;&lt;b&gt;提取表元数据&lt;/b&gt;&lt;/span&gt;" style="rounded=0;whiteSpace=wrap;html=1;fillColor=#00FFFF;" vertex="1" parent="1">
          <mxGeometry x="-400" y="7380" width="120" height="40" as="geometry" />
        </mxCell>
        <mxCell id="uQwGvMqORdM1SB5QROvM-4" value="&lt;span style=&quot;font-size: 16px&quot;&gt;&lt;b&gt;保存原快照&lt;br&gt;before image&lt;br&gt;&lt;/b&gt;&lt;/span&gt;" style="rounded=0;whiteSpace=wrap;html=1;fillColor=#00FFFF;" vertex="1" parent="1">
          <mxGeometry x="-190" y="7380" width="120" height="40" as="geometry" />
        </mxCell>
        <mxCell id="uQwGvMqORdM1SB5QROvM-5" value="&lt;span style=&quot;font-size: 16px&quot;&gt;&lt;b&gt;执行业务 SQL&lt;br&gt;&lt;/b&gt;&lt;/span&gt;" style="rounded=0;whiteSpace=wrap;html=1;fillColor=#dae8fc;strokeColor=#6c8ebf;" vertex="1" parent="1">
          <mxGeometry y="7380" width="120" height="40" as="geometry" />
        </mxCell>
        <mxCell id="uQwGvMqORdM1SB5QROvM-6" value="&lt;span style=&quot;font-size: 16px&quot;&gt;&lt;b&gt;保存新快照&lt;br&gt;after image&lt;br&gt;&lt;/b&gt;&lt;/span&gt;" style="rounded=0;whiteSpace=wrap;html=1;fillColor=#00FFFF;" vertex="1" parent="1">
          <mxGeometry x="209" y="7380" width="120" height="40" as="geometry" />
        </mxCell>
        <mxCell id="uQwGvMqORdM1SB5QROvM-7" value="&lt;span style=&quot;font-size: 16px&quot;&gt;&lt;b&gt;生成行锁&lt;br&gt;&lt;/b&gt;&lt;/span&gt;" style="rounded=0;whiteSpace=wrap;html=1;fillColor=#00FFFF;" vertex="1" parent="1">
          <mxGeometry x="409" y="7380" width="120" height="40" as="geometry" />
        </mxCell>
        <mxCell id="uQwGvMqORdM1SB5QROvM-8" value="" style="endArrow=none;html=1;rounded=0;comic=1;fontSize=24;fontColor=#000000;sourcePerimeterSpacing=2;targetPerimeterSpacing=2;strokeColor=#007FFF;strokeWidth=2;jumpStyle=gap;dashed=1;" edge="1" parent="1">
          <mxGeometry width="50" height="50" relative="1" as="geometry">
            <mxPoint x="-240" y="7480" as="sourcePoint" />
            <mxPoint x="-240" y="7480" as="targetPoint" />
            <Array as="points">
              <mxPoint x="-240" y="7320" />
              <mxPoint x="600" y="7320" />
              <mxPoint x="600" y="7480" />
            </Array>
          </mxGeometry>
        </mxCell>
        <mxCell id="uQwGvMqORdM1SB5QROvM-9" value="" style="endArrow=classic;html=1;rounded=0;exitX=0.5;exitY=1;exitDx=0;exitDy=0;entryX=0.5;entryY=0;entryDx=0;entryDy=0;strokeWidth=3;" edge="1" parent="1" source="uQwGvMqORdM1SB5QROvM-2" target="uQwGvMqORdM1SB5QROvM-3">
          <mxGeometry width="50" height="50" relative="1" as="geometry">
            <mxPoint x="290" y="7110" as="sourcePoint" />
            <mxPoint x="340" y="7060" as="targetPoint" />
          </mxGeometry>
        </mxCell>
        <mxCell id="uQwGvMqORdM1SB5QROvM-10" value="" style="endArrow=classic;html=1;rounded=0;exitX=1;exitY=0.5;exitDx=0;exitDy=0;entryX=0;entryY=0.5;entryDx=0;entryDy=0;strokeWidth=3;" edge="1" parent="1" source="uQwGvMqORdM1SB5QROvM-3" target="uQwGvMqORdM1SB5QROvM-4">
          <mxGeometry width="50" height="50" relative="1" as="geometry">
            <mxPoint x="-330.0000000000002" y="7330" as="sourcePoint" />
            <mxPoint x="-330.0000000000002" y="7390" as="targetPoint" />
          </mxGeometry>
        </mxCell>
        <mxCell id="uQwGvMqORdM1SB5QROvM-11" value="" style="endArrow=classic;html=1;rounded=0;exitX=1;exitY=0.5;exitDx=0;exitDy=0;entryX=0;entryY=0.5;entryDx=0;entryDy=0;strokeWidth=3;" edge="1" parent="1" source="uQwGvMqORdM1SB5QROvM-4" target="uQwGvMqORdM1SB5QROvM-5">
          <mxGeometry width="50" height="50" relative="1" as="geometry">
            <mxPoint x="-270" y="7410" as="sourcePoint" />
            <mxPoint x="-180" y="7410" as="targetPoint" />
          </mxGeometry>
        </mxCell>
        <mxCell id="uQwGvMqORdM1SB5QROvM-12" value="" style="endArrow=classic;html=1;rounded=0;exitX=1;exitY=0.5;exitDx=0;exitDy=0;entryX=0;entryY=0.5;entryDx=0;entryDy=0;strokeWidth=3;" edge="1" parent="1" source="uQwGvMqORdM1SB5QROvM-5" target="uQwGvMqORdM1SB5QROvM-6">
          <mxGeometry width="50" height="50" relative="1" as="geometry">
            <mxPoint x="-260" y="7420" as="sourcePoint" />
            <mxPoint x="-170" y="7420" as="targetPoint" />
          </mxGeometry>
        </mxCell>
        <mxCell id="uQwGvMqORdM1SB5QROvM-13" value="" style="endArrow=classic;html=1;rounded=0;exitX=1;exitY=0.5;exitDx=0;exitDy=0;entryX=0;entryY=0.5;entryDx=0;entryDy=0;strokeWidth=3;" edge="1" parent="1" source="uQwGvMqORdM1SB5QROvM-6" target="uQwGvMqORdM1SB5QROvM-7">
          <mxGeometry width="50" height="50" relative="1" as="geometry">
            <mxPoint x="-250" y="7430" as="sourcePoint" />
            <mxPoint x="-160" y="7430" as="targetPoint" />
          </mxGeometry>
        </mxCell>
        <mxCell id="uQwGvMqORdM1SB5QROvM-14" value="" style="endArrow=classic;html=1;rounded=0;strokeWidth=3;" edge="1" parent="1">
          <mxGeometry width="50" height="50" relative="1" as="geometry">
            <mxPoint x="180" y="7480" as="sourcePoint" />
            <mxPoint x="180" y="7560" as="targetPoint" />
          </mxGeometry>
        </mxCell>
        <mxCell id="uQwGvMqORdM1SB5QROvM-15" value="&lt;font style=&quot;font-size: 18px&quot;&gt;&lt;b&gt;业务本地事务&lt;/b&gt;&lt;/font&gt;" style="text;html=1;align=center;verticalAlign=middle;resizable=0;points=[];autosize=1;strokeColor=none;fillColor=none;" vertex="1" parent="1">
          <mxGeometry x="110" y="7340" width="120" height="20" as="geometry" />
        </mxCell>
        <mxCell id="uQwGvMqORdM1SB5QROvM-16" value="" style="shape=datastore;whiteSpace=wrap;html=1;rounded=1;comic=0;fontSize=20;strokeColor=#007FFF;strokeWidth=2;fillColor=#d5e8d4;" vertex="1" parent="1">
          <mxGeometry x="120" y="7580" width="118" height="100" as="geometry" />
        </mxCell>
        <mxCell id="uQwGvMqORdM1SB5QROvM-17" value="&lt;b&gt;业务DB&lt;/b&gt;" style="text;html=1;align=center;verticalAlign=middle;resizable=0;points=[];autosize=1;strokeColor=none;fillColor=none;fontSize=18;" vertex="1" parent="1">
          <mxGeometry x="260" y="7615" width="80" height="30" as="geometry" />
        </mxCell>
        <mxCell id="uQwGvMqORdM1SB5QROvM-18" value="&lt;font style=&quot;font-size: 24px&quot;&gt;&lt;b&gt;Seata - AT 模式 第一阶段 RM 写表 步骤&lt;/b&gt;&lt;/font&gt;" style="text;html=1;align=center;verticalAlign=middle;resizable=0;points=[];autosize=1;strokeColor=none;fillColor=none;fontSize=18;" vertex="1" parent="1">
          <mxGeometry x="-82" y="7720" width="440" height="30" as="geometry" />
        </mxCell>
        <mxCell id="uQwGvMqORdM1SB5QROvM-19" value="&lt;span style=&quot;font-size: 16px&quot;&gt;&lt;b&gt;删除&lt;br&gt;before image&lt;br&gt;&lt;/b&gt;&lt;/span&gt;" style="rounded=0;whiteSpace=wrap;html=1;fillColor=#00FFFF;" vertex="1" parent="1">
          <mxGeometry x="-82" y="7920" width="120" height="40" as="geometry" />
        </mxCell>
        <mxCell id="uQwGvMqORdM1SB5QROvM-21" value="&lt;span style=&quot;font-size: 16px&quot;&gt;&lt;b&gt;删除&lt;br&gt;after image&lt;br&gt;&lt;/b&gt;&lt;/span&gt;" style="rounded=0;whiteSpace=wrap;html=1;fillColor=#00FFFF;" vertex="1" parent="1">
          <mxGeometry x="129" y="7920" width="120" height="40" as="geometry" />
        </mxCell>
        <mxCell id="uQwGvMqORdM1SB5QROvM-22" value="&lt;span style=&quot;font-size: 16px&quot;&gt;&lt;b&gt;删除行锁&lt;br&gt;&lt;/b&gt;&lt;/span&gt;" style="rounded=0;whiteSpace=wrap;html=1;fillColor=#00FFFF;" vertex="1" parent="1">
          <mxGeometry x="329" y="7920" width="120" height="40" as="geometry" />
        </mxCell>
        <mxCell id="uQwGvMqORdM1SB5QROvM-23" value="" style="endArrow=none;html=1;rounded=0;comic=1;fontSize=24;fontColor=#000000;sourcePerimeterSpacing=2;targetPerimeterSpacing=2;strokeColor=#007FFF;strokeWidth=2;jumpStyle=gap;dashed=1;" edge="1" parent="1">
          <mxGeometry width="50" height="50" relative="1" as="geometry">
            <mxPoint x="-161.5" y="8000" as="sourcePoint" />
            <mxPoint x="-161.5" y="8000" as="targetPoint" />
            <Array as="points">
              <mxPoint x="-161.5" y="7880" />
              <mxPoint x="521.5" y="7880" />
              <mxPoint x="521.5" y="8000" />
            </Array>
          </mxGeometry>
        </mxCell>
        <mxCell id="uQwGvMqORdM1SB5QROvM-25" value="" style="endArrow=classic;html=1;rounded=0;entryX=0;entryY=0.5;entryDx=0;entryDy=0;strokeWidth=3;exitX=1;exitY=0.5;exitDx=0;exitDy=0;" edge="1" parent="1" source="uQwGvMqORdM1SB5QROvM-19" target="uQwGvMqORdM1SB5QROvM-21">
          <mxGeometry width="50" height="50" relative="1" as="geometry">
            <mxPoint x="50" y="7980" as="sourcePoint" />
            <mxPoint x="-250" y="7960" as="targetPoint" />
          </mxGeometry>
        </mxCell>
        <mxCell id="uQwGvMqORdM1SB5QROvM-26" value="" style="endArrow=classic;html=1;rounded=0;exitX=1;exitY=0.5;exitDx=0;exitDy=0;entryX=0;entryY=0.5;entryDx=0;entryDy=0;strokeWidth=3;" edge="1" parent="1" source="uQwGvMqORdM1SB5QROvM-21" target="uQwGvMqORdM1SB5QROvM-22">
          <mxGeometry width="50" height="50" relative="1" as="geometry">
            <mxPoint x="-330" y="7970" as="sourcePoint" />
            <mxPoint x="-240" y="7970" as="targetPoint" />
          </mxGeometry>
        </mxCell>
        <mxCell id="uQwGvMqORdM1SB5QROvM-27" value="" style="endArrow=classic;html=1;rounded=0;strokeWidth=3;" edge="1" parent="1">
          <mxGeometry width="50" height="50" relative="1" as="geometry">
            <mxPoint x="178.41" y="8000" as="sourcePoint" />
            <mxPoint x="178.41" y="8080" as="targetPoint" />
          </mxGeometry>
        </mxCell>
        <mxCell id="uQwGvMqORdM1SB5QROvM-29" value="" style="shape=datastore;whiteSpace=wrap;html=1;rounded=1;comic=0;fontSize=20;strokeColor=#007FFF;strokeWidth=2;fillColor=#d5e8d4;" vertex="1" parent="1">
          <mxGeometry x="122" y="8090" width="118" height="100" as="geometry" />
        </mxCell>
        <mxCell id="uQwGvMqORdM1SB5QROvM-30" value="&lt;b&gt;业务DB&lt;/b&gt;" style="text;html=1;align=center;verticalAlign=middle;resizable=0;points=[];autosize=1;strokeColor=none;fillColor=none;fontSize=18;" vertex="1" parent="1">
          <mxGeometry x="132" y="8160" width="80" height="30" as="geometry" />
        </mxCell>
        <mxCell id="uQwGvMqORdM1SB5QROvM-32" value="&lt;b&gt;DB事务&lt;/b&gt;" style="text;html=1;align=center;verticalAlign=middle;resizable=0;points=[];autosize=1;strokeColor=none;fillColor=none;fontSize=18;" vertex="1" parent="1">
          <mxGeometry x="189" y="8030" width="80" height="30" as="geometry" />
        </mxCell>
        <mxCell id="uQwGvMqORdM1SB5QROvM-64" value="&lt;span style=&quot;font-size: 16px&quot;&gt;&lt;b&gt;检验脏写&lt;br&gt;&lt;/b&gt;&lt;/span&gt;" style="rounded=0;whiteSpace=wrap;html=1;fillColor=#00FFFF;" vertex="1" parent="1">
          <mxGeometry x="-110" y="8390" width="120" height="40" as="geometry" />
        </mxCell>
        <mxCell id="uQwGvMqORdM1SB5QROvM-65" value="&lt;span style=&quot;font-size: 16px&quot;&gt;&lt;b&gt;还原数据&lt;br&gt;&lt;/b&gt;&lt;/span&gt;" style="rounded=0;whiteSpace=wrap;html=1;fillColor=#00FFFF;" vertex="1" parent="1">
          <mxGeometry x="152" y="8390" width="120" height="40" as="geometry" />
        </mxCell>
        <mxCell id="uQwGvMqORdM1SB5QROvM-66" value="&lt;span style=&quot;font-size: 16px&quot;&gt;&lt;b&gt;删除中间数据&lt;br&gt;&lt;/b&gt;&lt;/span&gt;" style="rounded=0;whiteSpace=wrap;html=1;fillColor=#00FFFF;" vertex="1" parent="1">
          <mxGeometry x="409" y="8390" width="120" height="40" as="geometry" />
        </mxCell>
        <mxCell id="uQwGvMqORdM1SB5QROvM-67" value="" style="endArrow=none;html=1;rounded=0;comic=1;fontSize=24;fontColor=#000000;sourcePerimeterSpacing=2;targetPerimeterSpacing=2;strokeColor=#007FFF;strokeWidth=2;jumpStyle=gap;dashed=1;" edge="1" parent="1">
          <mxGeometry width="50" height="50" relative="1" as="geometry">
            <mxPoint x="-194" y="8470" as="sourcePoint" />
            <mxPoint x="-194" y="8470" as="targetPoint" />
            <Array as="points">
              <mxPoint x="-194" y="8320" />
              <mxPoint x="649" y="8320" />
              <mxPoint x="649" y="8470" />
            </Array>
          </mxGeometry>
        </mxCell>
        <mxCell id="uQwGvMqORdM1SB5QROvM-68" value="" style="endArrow=classic;html=1;rounded=0;entryX=0;entryY=0.5;entryDx=0;entryDy=0;strokeWidth=3;exitX=1;exitY=0.5;exitDx=0;exitDy=0;" edge="1" parent="1" source="uQwGvMqORdM1SB5QROvM-64" target="uQwGvMqORdM1SB5QROvM-65">
          <mxGeometry width="50" height="50" relative="1" as="geometry">
            <mxPoint x="48.5" y="8450" as="sourcePoint" />
            <mxPoint x="-251.5" y="8430" as="targetPoint" />
          </mxGeometry>
        </mxCell>
        <mxCell id="uQwGvMqORdM1SB5QROvM-69" value="" style="endArrow=classic;html=1;rounded=0;exitX=1;exitY=0.5;exitDx=0;exitDy=0;entryX=0;entryY=0.5;entryDx=0;entryDy=0;strokeWidth=3;" edge="1" parent="1" source="uQwGvMqORdM1SB5QROvM-65" target="uQwGvMqORdM1SB5QROvM-66">
          <mxGeometry width="50" height="50" relative="1" as="geometry">
            <mxPoint x="-331.5" y="8440" as="sourcePoint" />
            <mxPoint x="-241.5" y="8440" as="targetPoint" />
          </mxGeometry>
        </mxCell>
        <mxCell id="uQwGvMqORdM1SB5QROvM-70" value="" style="endArrow=classic;html=1;rounded=0;strokeWidth=3;" edge="1" parent="1">
          <mxGeometry width="50" height="50" relative="1" as="geometry">
            <mxPoint x="210.49999999999986" y="8470" as="sourcePoint" />
            <mxPoint x="210.49999999999986" y="8550" as="targetPoint" />
          </mxGeometry>
        </mxCell>
        <mxCell id="uQwGvMqORdM1SB5QROvM-71" value="" style="shape=datastore;whiteSpace=wrap;html=1;rounded=1;comic=0;fontSize=20;strokeColor=#007FFF;strokeWidth=2;fillColor=#d5e8d4;" vertex="1" parent="1">
          <mxGeometry x="152" y="8560" width="118" height="100" as="geometry" />
        </mxCell>
        <mxCell id="uQwGvMqORdM1SB5QROvM-72" value="&lt;b&gt;业务DB&lt;/b&gt;" style="text;html=1;align=center;verticalAlign=middle;resizable=0;points=[];autosize=1;strokeColor=none;fillColor=none;fontSize=18;" vertex="1" parent="1">
          <mxGeometry x="171" y="8610" width="80" height="30" as="geometry" />
        </mxCell>
        <mxCell id="uQwGvMqORdM1SB5QROvM-73" value="&lt;b&gt;DB事务&lt;/b&gt;" style="text;html=1;align=center;verticalAlign=middle;resizable=0;points=[];autosize=1;strokeColor=none;fillColor=none;fontSize=18;" vertex="1" parent="1">
          <mxGeometry x="218" y="8490" width="80" height="30" as="geometry" />
        </mxCell>
        <mxCell id="uQwGvMqORdM1SB5QROvM-74" value="&lt;font style=&quot;font-size: 14px&quot;&gt;after iamge &lt;b&gt;VS&lt;/b&gt; 当前数据&lt;/font&gt;" style="text;html=1;align=center;verticalAlign=middle;resizable=0;points=[];autosize=1;strokeColor=none;fillColor=none;fontSize=24;" vertex="1" parent="1">
          <mxGeometry x="-135" y="8330" width="170" height="40" as="geometry" />
        </mxCell>
        <mxCell id="uQwGvMqORdM1SB5QROvM-75" value="&lt;font style=&quot;font-size: 14px&quot;&gt;before image → 逆向SQL →&amp;nbsp;数据还原&lt;/font&gt;" style="text;html=1;align=center;verticalAlign=middle;resizable=0;points=[];autosize=1;strokeColor=none;fillColor=none;fontSize=24;" vertex="1" parent="1">
          <mxGeometry x="64" y="8330" width="250" height="40" as="geometry" />
        </mxCell>
        <mxCell id="uQwGvMqORdM1SB5QROvM-76" value="&lt;span style=&quot;font-size: 14px&quot;&gt;删除 before image, after image, 中间锁&lt;/span&gt;" style="text;html=1;align=center;verticalAlign=middle;resizable=0;points=[];autosize=1;strokeColor=none;fillColor=none;fontSize=24;" vertex="1" parent="1">
          <mxGeometry x="337" y="8330" width="260" height="40" as="geometry" />
        </mxCell>
      </root>
    </mxGraphModel>
  </diagram>
</mxfile>
